<?xml version="1.0" encoding="utf-8"?>
<!-- Generator: Adobe Illustrator 21.0.2, SVG Export Plug-In . SVG Version: 6.00 Build 0)  -->
<svg version="1.1" id="Layer_1" xmlns="http://www.w3.org/2000/svg" xmlns:xlink="http://www.w3.org/1999/xlink" x="0px" y="0px"
	 viewBox="0 0 32 39" style="enable-background:new 0 0 32 39;" xml:space="preserve">
<style type="text/css">
	.st0{fill:#3D3E45;}
</style>
<path class="st0" d="M0.2,0"/>
<path class="st0" d="M21.8,6.4c1.3-1.6,2.3-3.9,2-6.1c-2,0.1-4.3,1.3-5.7,2.9c-1.2,1.4-2.3,3.7-2,5.9C18.2,9.3,20.4,8,21.8,6.4
	L21.8,6.4z"/>
<path class="st0" d="M27.4,24.2H0.9l0,0H27.4L27.4,24.2c-0.6-1.3-0.9-3.2-0.7-4.7v-0.1l0,0c0.2-2,1.6-4.1,2.6-4.9l0,0l0,0l0,0l0,0
	c0.2-0.3,0.9-0.8,1.3-1.1C29,11,26.3,9.7,23.5,9.6c-2.8-0.2-5.6,1.8-7.2,1.7c-1.5,0-3.8-1.7-6.2-1.6l0,0c-0.1,0-0.5,0-0.5,0
	c-3.2,0.1-6,1.9-7.6,4.8l0,0l0,0l0,0c-0.6,1-1.4,3.4-1.5,4.9l0,0v0.1c-0.2,1,0,3.5,0.2,4.7l0,0c0,0,0,0,0,0.1l0,0
	c0.1,1.2,0.8,3.6,1.2,4.7l0,0l0,0c0.4,1.3,1.7,3.7,2.5,4.9l0,0l0,0c1.6,2.3,3.5,5,6.1,4.8c2.4-0.1,3.3-1.6,6.3-1.6
	c2.9,0,3.7,1.5,6.3,1.5c2.6-0.1,4.2-2.4,5.9-4.8c0.8-1.2,2-3.5,2.5-4.9l0,0c0-0.1,0.1-0.4,0.2-0.5C30,28,28.1,25.7,27.4,24.2
	L27.4,24.2z"/>
</svg>
