<?xml version="1.0" encoding="utf-8"?>
<!-- Generator: Adobe Illustrator 25.2.1, SVG Export Plug-In . SVG Version: 6.00 Build 0)  -->
<svg version="1.1" id="Layer_1" xmlns="http://www.w3.org/2000/svg" xmlns:xlink="http://www.w3.org/1999/xlink" x="0px" y="0px"
	 viewBox="0 0 53 64" style="enable-background:new 0 0 53 64;" xml:space="preserve">
<style type="text/css">
	.st0{fill:url(#SVGID_1_);}
	.st1{fill:url(#SVGID_2_);}
</style>
<g>
	<g>
		<linearGradient id="SVGID_1_" gradientUnits="userSpaceOnUse" x1="-14.5654" y1="69.1699" x2="37.7427" y2="22.3105">
			<stop  offset="0" style="stop-color:#96C854"/>
			<stop  offset="0.4883" style="stop-color:#98D268"/>
			<stop  offset="1" style="stop-color:#A5F2B6"/>
		</linearGradient>
		<path class="st0" d="M46.8,54.1h-0.5V36.2h0.5c1,0,2-0.4,2.7-1.2c0.7-0.7,1.1-1.7,1.1-2.7c0-2.2-1.7-3.9-3.9-3.9h-0.5V10.5h0.5
			c2.2,0,3.9-1.7,3.9-3.9s-1.7-3.9-3.9-3.9H6.2C4,2.8,2.3,4.5,2.3,6.6s1.7,3.9,3.9,3.9h0.5v17.9H6.2c-1,0-2,0.4-2.7,1.2
			c-0.7,0.7-1.1,1.7-1.1,2.7c0,2.2,1.7,3.9,3.9,3.9h0.5v17.9H6.2c-2.2,0-3.9,1.7-3.9,3.9s1.7,3.9,3.9,3.9h40.7
			c2.2,0,3.9-1.7,3.9-3.9C50.6,55.9,48.9,54.1,46.8,54.1z M46.8,59.6H6.2c-0.9,0-1.7-0.7-1.7-1.5c-0.1-0.9,0.7-1.8,1.7-1.8h1.5l0,0
			l0,0h8.9c0.6,0,1.1-0.4,1.2-1c0-0.6-0.5-1.2-1.1-1.2H8.8v-19c0-0.6-0.5-1.1-1.1-1.1H6.2c-0.9,0-1.7-0.7-1.7-1.6
			c0-0.4,0.2-0.9,0.5-1.2c0.3-0.3,0.7-0.5,1.2-0.5h1.6h7.8c0.6,0,1.1-0.4,1.2-1c0-0.6-0.5-1.2-1.1-1.2H8.8v-18h6.9
			c0.6,0,1.1-0.4,1.2-1c0-0.6-0.5-1.2-1.1-1.2h-8l0,0l0,0H6.3c-0.9,0-1.7-0.7-1.7-1.5C4.5,5.8,5.2,5,6.2,5h40.6
			c0.9,0,1.7,0.7,1.7,1.5c0.1,1-0.7,1.8-1.7,1.8h-1.5l0,0l0,0h-5.6c-0.6,0-1.1,0.4-1.2,1c0,0.6,0.5,1.2,1.1,1.2h4.6v19
			c0,0.6,0.5,1.1,1.1,1.1h1.5c0.9,0,1.7,0.7,1.7,1.6c0,0.4-0.2,0.9-0.5,1.2s-0.7,0.5-1.2,0.5h-1.6h-0.1c-0.1,0-0.1,0-0.1,0h-5.1
			c-0.6,0-1.2,0.4-1.2,1s0.5,1.1,1.1,1.1H44v18h-4c-0.6,0-1.1,0.4-1.2,1c0,0.6,0.5,1.2,1.1,1.2H45l0,0l0,0h1.5
			c0.9,0,1.7,0.7,1.7,1.5C48.5,58.8,47.8,59.6,46.8,59.6z"/>
		<linearGradient id="SVGID_2_" gradientUnits="userSpaceOnUse" x1="-14.0319" y1="69.7654" x2="38.2762" y2="22.906">
			<stop  offset="0" style="stop-color:#96C854"/>
			<stop  offset="0.4883" style="stop-color:#98D268"/>
			<stop  offset="1" style="stop-color:#A5F2B6"/>
		</linearGradient>
		<path class="st1" d="M27.4,21.8c-0.2-0.3-0.6-0.6-0.9-0.6s-0.8,0.2-0.9,0.6l-5.7,9.9c-1.4,2.4-1.4,5.3,0,7.7
			c1.4,2.4,3.9,3.9,6.7,3.9s5.3-1.4,6.7-3.9s1.4-5.3,0-7.7L27.4,21.8z M31.3,38.4c-1,1.7-2.8,2.8-4.8,2.8s-3.8-1-4.8-2.8
			c-1-1.7-1-3.8,0-5.5l4.8-8.3l4.8,8.3C32.3,34.6,32.3,36.7,31.3,38.4z"/>
	</g>
</g>
</svg>
