<?xml version="1.0" encoding="utf-8"?>
<!-- Generator: Adobe Illustrator 25.2.1, SVG Export Plug-In . SVG Version: 6.00 Build 0)  -->
<svg version="1.1" id="Layer_1" xmlns="http://www.w3.org/2000/svg" xmlns:xlink="http://www.w3.org/1999/xlink" x="0px" y="0px"
	 viewBox="0 0 98 94" style="enable-background:new 0 0 98 94;" xml:space="preserve">
<style type="text/css">
	.st0{fill:url(#SVGID_1_);}
	.st1{fill:url(#SVGID_2_);}
	.st2{fill:url(#SVGID_3_);}
	.st3{fill:url(#SVGID_4_);}
	.st4{fill:url(#SVGID_5_);}
	.st5{fill:url(#SVGID_6_);}
	.st6{fill:url(#SVGID_7_);}
	.st7{fill:url(#SVGID_8_);}
	.st8{fill:url(#SVGID_9_);}
	.st9{fill:url(#SVGID_10_);}
</style>
<g>
	<g>
		<g>
			<g>
				<g>
					<g>
						<g>
							<g>
								<linearGradient id="SVGID_1_" gradientUnits="userSpaceOnUse" x1="-10.2224" y1="113.8722" x2="80.9535" y2="31.4143">
									<stop  offset="0" style="stop-color:#96C854"/>
									<stop  offset="0.4883" style="stop-color:#98D268"/>
									<stop  offset="1" style="stop-color:#A5F2B6"/>
								</linearGradient>
								<path class="st0" d="M55.1,61.4c-0.6,0-1.3-0.3-1.7-0.9c-1.1-1.5-2.5-5-2.6-8c-0.1-1.2,0.8-2.2,2-2.3s2.2,0.8,2.3,2
									c0.2,2.2,1.2,4.9,1.8,5.7c0.7,0.9,0.5,2.3-0.5,3C56,61.3,55.5,61.4,55.1,61.4z"/>
							</g>
							<g>
								<linearGradient id="SVGID_2_" gradientUnits="userSpaceOnUse" x1="-22.4349" y1="100.3686" x2="68.7411" y2="17.9107">
									<stop  offset="0" style="stop-color:#96C854"/>
									<stop  offset="0.4883" style="stop-color:#98D268"/>
									<stop  offset="1" style="stop-color:#A5F2B6"/>
								</linearGradient>
								<path class="st1" d="M26.1,61.4c-0.3,0-0.6-0.1-0.9-0.2c-1.1-0.5-1.5-1.8-1-2.8c0.6-1.3,1.8-4.4,1.9-6.7
									c0-1.2,1-2.2,2.2-2.1c1.2,0,2.1,1,2.1,2.2c-0.1,3.8-2.1,8-2.3,8.5C27.7,60.9,26.9,61.4,26.1,61.4z"/>
							</g>
							<g>
								<linearGradient id="SVGID_3_" gradientUnits="userSpaceOnUse" x1="-29.699" y1="92.3364" x2="61.477" y2="9.8785">
									<stop  offset="0" style="stop-color:#96C854"/>
									<stop  offset="0.4883" style="stop-color:#98D268"/>
									<stop  offset="1" style="stop-color:#A5F2B6"/>
								</linearGradient>
								<path class="st2" d="M40.5,58.8C40.4,58.8,40.4,58.8,40.5,58.8c-2.6,0-8.4-0.4-11-3C26.7,52.9,16.7,39,18.3,21.4
									C19.5,8,27.9,0,40.6,0S61.7,8,63,21.4c1.6,17.6-8.4,31.5-11.2,34.3c-2.6,2.6-8.5,3-10.9,3h-0.4l0.1-2.2L40.5,58.8l0.1-2.2
									L40.5,58.8L40.5,58.8z M40.6,4.3c-10.5,0-17,6.4-18.1,17.5c-1.5,15.8,7.7,28.6,10,31c0.8,0.8,3.8,1.7,7.8,1.7l0.2,2.2
									l0.1-2.2h0.1l0.1,2.2l0.1-2.2c4,0,7-0.9,7.8-1.7c2.4-2.4,11.4-15.1,9.9-30.9C57.7,10.7,51.1,4.3,40.6,4.3z"/>
							</g>
						</g>
						<g>
							<linearGradient id="SVGID_4_" gradientUnits="userSpaceOnUse" x1="-6.1256" y1="118.4022" x2="85.0504" y2="35.9443">
								<stop  offset="0" style="stop-color:#96C854"/>
								<stop  offset="0.4883" style="stop-color:#98D268"/>
								<stop  offset="1" style="stop-color:#A5F2B6"/>
							</linearGradient>
							<path class="st3" d="M61.1,63.5c-0.3,0-0.5-0.1-0.7-0.2c-3.3-1.3-5.7-2-5.8-2c-1.1-0.4-1.8-1.5-1.5-2.6
								c0.4-1.1,1.5-1.8,2.6-1.5c0.1,0,2.6,0.8,6.1,2.1c1.1,0.5,1.6,1.6,1.3,2.7C62.7,62.9,61.9,63.5,61.1,63.5z"/>
						</g>
						<g>
							<linearGradient id="SVGID_5_" gradientUnits="userSpaceOnUse" x1="-23.1288" y1="99.6012" x2="68.0471" y2="17.1433">
								<stop  offset="0" style="stop-color:#96C854"/>
								<stop  offset="0.4883" style="stop-color:#98D268"/>
								<stop  offset="1" style="stop-color:#A5F2B6"/>
							</linearGradient>
							<path class="st4" d="M2.6,76.1c-0.2,0-0.4,0-0.5-0.1c-1.2-0.3-1.8-1.5-1.5-2.6C3,64,23.2,57.8,25.5,57.2
								c1.2-0.4,2.4,0.4,2.6,1.5c0.4,1.1-0.4,2.4-1.5,2.6c-7.7,2.3-20.6,7.8-22,13.2C4.4,75.4,3.6,76.1,2.6,76.1z"/>
						</g>
					</g>
				</g>
			</g>
		</g>
		<g>
			<linearGradient id="SVGID_6_" gradientUnits="userSpaceOnUse" x1="10.9344" y1="137.2658" x2="102.1103" y2="54.8079">
				<stop  offset="0" style="stop-color:#96C854"/>
				<stop  offset="0.4883" style="stop-color:#98D268"/>
				<stop  offset="1" style="stop-color:#A5F2B6"/>
			</linearGradient>
			<path class="st5" d="M79.1,94C69,94,60.7,85.7,60.7,75.6S69,57.2,79.1,57.2s18.4,8.3,18.4,18.4S89.3,94,79.1,94z M79.1,60.7
				c-8.3,0-14.9,6.7-14.9,14.9c0,8.3,6.7,14.9,14.9,14.9c8.3,0,14.9-6.7,14.9-14.9C94.1,67.3,87.4,60.7,79.1,60.7z"/>
		</g>
		<g>
			<linearGradient id="SVGID_7_" gradientUnits="userSpaceOnUse" x1="9.156" y1="135.2994" x2="100.3319" y2="52.8415">
				<stop  offset="0" style="stop-color:#96C854"/>
				<stop  offset="0.4883" style="stop-color:#98D268"/>
				<stop  offset="1" style="stop-color:#A5F2B6"/>
			</linearGradient>
			<path class="st6" d="M79.1,77.3h-7.9c-0.9,0-1.7-0.7-1.7-1.7c0-0.9,0.7-1.7,1.7-1.7h7.9c0.9,0,1.7,0.7,1.7,1.7
				C80.9,76.5,80.1,77.3,79.1,77.3z"/>
		</g>
		<g>
			<linearGradient id="SVGID_8_" gradientUnits="userSpaceOnUse" x1="12.7476" y1="139.2707" x2="103.9235" y2="56.8128">
				<stop  offset="0" style="stop-color:#96C854"/>
				<stop  offset="0.4883" style="stop-color:#98D268"/>
				<stop  offset="1" style="stop-color:#A5F2B6"/>
			</linearGradient>
			<path class="st7" d="M87.1,77.3h-7.9c-0.9,0-1.7-0.7-1.7-1.7c0-0.9,0.7-1.7,1.7-1.7h7.9c0.9,0,1.7,0.7,1.7,1.7
				C88.8,76.5,88.1,77.3,87.1,77.3z"/>
		</g>
		<g>
			<linearGradient id="SVGID_9_" gradientUnits="userSpaceOnUse" x1="12.9394" y1="139.4829" x2="104.1153" y2="57.0249">
				<stop  offset="0" style="stop-color:#96C854"/>
				<stop  offset="0.4883" style="stop-color:#98D268"/>
				<stop  offset="1" style="stop-color:#A5F2B6"/>
			</linearGradient>
			<path class="st8" d="M79.1,85.3c-0.9,0-1.7-0.7-1.7-1.7v-7.9c0-0.9,0.7-1.7,1.7-1.7c0.9,0,1.7,0.7,1.7,1.7v7.9
				C80.9,84.4,80.1,85.3,79.1,85.3z"/>
		</g>
		<g>
			<linearGradient id="SVGID_10_" gradientUnits="userSpaceOnUse" x1="8.9681" y1="135.0916" x2="100.144" y2="52.6337">
				<stop  offset="0" style="stop-color:#96C854"/>
				<stop  offset="0.4883" style="stop-color:#98D268"/>
				<stop  offset="1" style="stop-color:#A5F2B6"/>
			</linearGradient>
			<path class="st9" d="M79.1,77.3c-0.9,0-1.7-0.7-1.7-1.7v-7.9c0-0.9,0.7-1.7,1.7-1.7c0.9,0,1.7,0.7,1.7,1.7v7.9
				C80.9,76.5,80.1,77.3,79.1,77.3z"/>
		</g>
	</g>
</g>
</svg>
