<?xml version="1.0" encoding="utf-8"?>
<!-- Generator: Adobe Illustrator 25.2.1, SVG Export Plug-In . SVG Version: 6.00 Build 0)  -->
<svg version="1.1" id="Layer_1" xmlns="http://www.w3.org/2000/svg" xmlns:xlink="http://www.w3.org/1999/xlink" x="0px" y="0px"
	 viewBox="0 0 75 69" style="enable-background:new 0 0 75 69;" xml:space="preserve">
<style type="text/css">
	.st0{fill:url(#SVGID_1_);}
	.st1{fill:url(#SVGID_2_);}
	.st2{fill:url(#SVGID_3_);}
	.st3{fill:url(#SVGID_4_);}
	.st4{fill:url(#SVGID_5_);}
	.st5{fill:url(#SVGID_6_);}
	.st6{fill:url(#SVGID_7_);}
	.st7{fill:url(#SVGID_8_);}
	.st8{fill:url(#SVGID_9_);}
	.st9{fill:url(#SVGID_10_);}
	.st10{fill:url(#SVGID_11_);}
	.st11{fill:url(#SVGID_12_);}
	.st12{fill:url(#SVGID_13_);}
	.st13{fill:url(#SVGID_14_);}
	.st14{fill:url(#SVGID_15_);}
	.st15{fill:url(#SVGID_16_);}
</style>
<g>
	<g>
		<g>
			<linearGradient id="SVGID_1_" gradientUnits="userSpaceOnUse" x1="-28.3942" y1="60.495" x2="55.8799" y2="2.7381">
				<stop  offset="0" style="stop-color:#96C854"/>
				<stop  offset="0.4883" style="stop-color:#98D268"/>
				<stop  offset="1" style="stop-color:#A5F2B6"/>
			</linearGradient>
			<path class="st0" d="M9.8,48.7c-0.4,0-0.8-0.2-1-0.5L0.6,36.9c-0.3-0.4-0.3-0.9-0.1-1.3c0.2-0.4,0.6-0.6,1.1-0.6h2.1v-0.4
				C3.7,15.9,18.9,0.7,37.5,0.7c0.6,0,1.2,0.5,1.2,1.2s-0.6,1.2-1.2,1.2C20.2,3.2,6.2,17.2,6.2,34.5v1.6c0,0.6-0.5,1.2-1.2,1.2H4
				l5.6,7.9l4.5-7.9H13c-0.6,0-1.2-0.5-1.2-1.2v-1.6c0-14.2,11.5-25.6,25.6-25.6c8.9,0,17,4.5,21.7,12c0.4,0.6,0.2,1.4-0.4,1.7
				c-0.6,0.4-1.4,0.2-1.7-0.4c-4.2-6.9-11.6-10.9-19.6-10.9c-12.8,0-23.2,10.4-23.2,23.2v0.4h2.1c0.4,0,0.8,0.2,1.1,0.6
				c0.2,0.4,0.2,0.8,0,1.2l-6.5,11.4C10.6,48.5,10.3,48.7,9.8,48.7C9.9,48.7,9.8,48.7,9.8,48.7z"/>
		</g>
		<g>
			<linearGradient id="SVGID_2_" gradientUnits="userSpaceOnUse" x1="-26.2984" y1="63.553" x2="57.9757" y2="5.7961">
				<stop  offset="0" style="stop-color:#96C854"/>
				<stop  offset="0.4883" style="stop-color:#98D268"/>
				<stop  offset="1" style="stop-color:#A5F2B6"/>
			</linearGradient>
			<path class="st1" d="M57.2,9.7c-0.2,0-0.5-0.1-0.8-0.2c-1-0.8-2.1-1.5-3.1-2.1c-0.6-0.4-0.8-1.1-0.4-1.6C53.3,5.2,54,5,54.6,5.3
				C55.7,6,56.8,6.8,58,7.6c0.5,0.4,0.6,1.2,0.2,1.7C57.9,9.6,57.6,9.7,57.2,9.7z"/>
		</g>
		<g>
			<linearGradient id="SVGID_3_" gradientUnits="userSpaceOnUse" x1="-29.9743" y1="58.1895" x2="54.2999" y2="0.4326">
				<stop  offset="0" style="stop-color:#96C854"/>
				<stop  offset="0.4883" style="stop-color:#98D268"/>
				<stop  offset="1" style="stop-color:#A5F2B6"/>
			</linearGradient>
			<path class="st2" d="M50.6,5.9c-0.2,0-0.4-0.1-0.5-0.1c-1-0.4-2-0.8-3-1.1c-0.6-0.2-1-0.9-0.8-1.5c0.2-0.6,0.9-1,1.5-0.8
				C49,2.7,50,3.1,51.1,3.6c0.6,0.3,0.9,1,0.6,1.6C51.5,5.6,51,5.9,50.6,5.9z"/>
		</g>
		<g>
			<linearGradient id="SVGID_4_" gradientUnits="userSpaceOnUse" x1="-32.9263" y1="53.8822" x2="51.3479" y2="-3.8747">
				<stop  offset="0" style="stop-color:#96C854"/>
				<stop  offset="0.4883" style="stop-color:#98D268"/>
				<stop  offset="1" style="stop-color:#A5F2B6"/>
			</linearGradient>
			<path class="st3" d="M43.9,3.7c-0.1,0-0.2,0-0.2,0c-0.9-0.2-1.9-0.4-2.9-0.4C40,3.3,39.5,2.7,39.6,2c0.1-0.6,0.7-1.2,1.4-1.1
				C42,1,43,1.2,44.1,1.3c0.6,0.1,1.1,0.8,0.9,1.4C45,3.3,44.4,3.7,43.9,3.7z"/>
		</g>
		<g>
			<linearGradient id="SVGID_5_" gradientUnits="userSpaceOnUse" x1="-10.4731" y1="86.6441" x2="73.8011" y2="28.8872">
				<stop  offset="0" style="stop-color:#96C854"/>
				<stop  offset="0.4883" style="stop-color:#98D268"/>
				<stop  offset="1" style="stop-color:#A5F2B6"/>
			</linearGradient>
			<path class="st4" d="M37.6,68.3c-0.6,0-1.2-0.5-1.2-1.2c0-0.6,0.5-1.2,1.2-1.2c17.2,0,31.2-14.1,31.2-31.3v-1.6
				c0-0.6,0.5-1.2,1.2-1.2H71l-5.6-7.9l-4.5,7.9H62c0.6,0,1.2,0.5,1.2,1.2v1.6c0,14.2-11.4,25.6-25.4,25.6c-8.9,0-17-4.5-21.7-12
				c-0.4-0.6-0.2-1.4,0.4-1.7c0.6-0.4,1.4-0.2,1.7,0.4c4.3,6.9,11.6,10.9,19.6,10.9c12.6,0,22.9-10.4,22.9-23.2v-0.4h-2.1
				c-0.4,0-0.8-0.2-1.1-0.6c-0.2-0.4-0.2-0.8,0-1.2l6.5-11.4c0.2-0.4,0.6-0.6,1-0.6c0.4,0,0.8,0.2,1.1,0.5l8.2,11.4
				c0.3,0.4,0.3,0.9,0.1,1.3c-0.2,0.4-0.6,0.6-1.1,0.6h-2.1v0.4C71.3,53.1,56.2,68.3,37.6,68.3z"/>
		</g>
		<g>
			<linearGradient id="SVGID_6_" gradientUnits="userSpaceOnUse" x1="-12.5474" y1="83.6174" x2="71.7268" y2="25.8606">
				<stop  offset="0" style="stop-color:#96C854"/>
				<stop  offset="0.4883" style="stop-color:#98D268"/>
				<stop  offset="1" style="stop-color:#A5F2B6"/>
			</linearGradient>
			<path class="st5" d="M21.2,63.9c-0.2,0-0.4-0.1-0.6-0.2c-1.2-0.7-2.3-1.5-3.4-2.2c-0.5-0.4-0.6-1.2-0.2-1.7
				c0.4-0.5,1.2-0.6,1.7-0.2c1,0.8,2.1,1.5,3.1,2.1c0.6,0.4,0.8,1.1,0.4,1.6C22,63.7,21.6,63.9,21.2,63.9z"/>
		</g>
		<g>
			<linearGradient id="SVGID_7_" gradientUnits="userSpaceOnUse" x1="-8.8832" y1="88.964" x2="75.391" y2="31.2071">
				<stop  offset="0" style="stop-color:#96C854"/>
				<stop  offset="0.4883" style="stop-color:#98D268"/>
				<stop  offset="1" style="stop-color:#A5F2B6"/>
			</linearGradient>
			<path class="st6" d="M27.7,66.8c-0.1,0-0.2,0-0.4-0.1c-1.1-0.4-2.2-0.8-3.2-1.2c-0.6-0.3-0.9-1-0.6-1.6c0.3-0.6,1-0.9,1.6-0.6
				c1,0.4,2,0.8,3,1.1c0.6,0.2,1,0.9,0.8,1.5C28.7,66.4,28.2,66.8,27.7,66.8z"/>
		</g>
		<g>
			<linearGradient id="SVGID_8_" gradientUnits="userSpaceOnUse" x1="-5.939" y1="93.2598" x2="78.3351" y2="35.5029">
				<stop  offset="0" style="stop-color:#96C854"/>
				<stop  offset="0.4883" style="stop-color:#98D268"/>
				<stop  offset="1" style="stop-color:#A5F2B6"/>
			</linearGradient>
			<path class="st7" d="M34.3,68.1c-0.1,0-0.1,0-0.1,0c-1.1-0.1-2.1-0.3-3.2-0.5c-0.6-0.1-1.1-0.8-0.9-1.4c0.1-0.6,0.8-1.1,1.4-0.9
				c0.9,0.2,1.9,0.4,2.9,0.4c0.6,0.1,1.2,0.6,1.1,1.4C35.4,67.7,34.9,68.1,34.3,68.1z"/>
		</g>
		<g>
			<linearGradient id="SVGID_9_" gradientUnits="userSpaceOnUse" x1="-21.2129" y1="70.9734" x2="63.0613" y2="13.2166">
				<stop  offset="0" style="stop-color:#96C854"/>
				<stop  offset="0.4883" style="stop-color:#98D268"/>
				<stop  offset="1" style="stop-color:#A5F2B6"/>
			</linearGradient>
			<path class="st8" d="M40.7,35.7c-0.6,0-1.2-0.5-1.2-1.2s0.5-1.2,1.2-1.2c1.1,0,2.1-0.9,2.1-2.1v-1.6c0-1.1-0.9-2.1-2.1-2.1h-6.5
				c-0.6,0-1.2-0.5-1.2-1.2c0-0.6,0.5-1.2,1.2-1.2h6.5c2.5,0,4.5,2,4.5,4.5v1.8C45.3,33.7,43.2,35.7,40.7,35.7z"/>
		</g>
		<g>
			<linearGradient id="SVGID_10_" gradientUnits="userSpaceOnUse" x1="-17.4009" y1="76.5356" x2="66.8733" y2="18.7787">
				<stop  offset="0" style="stop-color:#96C854"/>
				<stop  offset="0.4883" style="stop-color:#98D268"/>
				<stop  offset="1" style="stop-color:#A5F2B6"/>
			</linearGradient>
			<path class="st9" d="M40.7,43.9h-6.5c-0.6,0-1.2-0.5-1.2-1.2v-8.1c0-0.6,0.5-1.2,1.2-1.2h6.5c2.5,0,4.5,2,4.5,4.5v1.6
				C45.3,41.9,43.2,43.9,40.7,43.9z M35.4,41.4h5.3c1.1,0,2.1-0.9,2.1-2.1v-1.6c0-1.1-0.9-2.1-2.1-2.1h-5.3V41.4z"/>
		</g>
		<g>
			<linearGradient id="SVGID_11_" gradientUnits="userSpaceOnUse" x1="-17.4904" y1="76.405" x2="66.7838" y2="18.6481">
				<stop  offset="0" style="stop-color:#96C854"/>
				<stop  offset="0.4883" style="stop-color:#98D268"/>
				<stop  offset="1" style="stop-color:#A5F2B6"/>
			</linearGradient>
			<path class="st10" d="M34.3,43.9h-4.9c-0.6,0-1.2-0.5-1.2-1.2s0.5-1.2,1.2-1.2h4.9c0.6,0,1.2,0.5,1.2,1.2S34.9,43.9,34.3,43.9z"
				/>
		</g>
		<g>
			<linearGradient id="SVGID_12_" gradientUnits="userSpaceOnUse" x1="-25.0858" y1="65.3223" x2="59.1883" y2="7.5654">
				<stop  offset="0" style="stop-color:#96C854"/>
				<stop  offset="0.4883" style="stop-color:#98D268"/>
				<stop  offset="1" style="stop-color:#A5F2B6"/>
			</linearGradient>
			<path class="st11" d="M34.3,27.6h-4.9c-0.6,0-1.2-0.5-1.2-1.2c0-0.6,0.5-1.2,1.2-1.2h4.9c0.6,0,1.2,0.5,1.2,1.2
				C35.4,27,34.9,27.6,34.3,27.6z"/>
		</g>
		<g>
			<linearGradient id="SVGID_13_" gradientUnits="userSpaceOnUse" x1="-23.5415" y1="67.5757" x2="60.7327" y2="9.8189">
				<stop  offset="0" style="stop-color:#96C854"/>
				<stop  offset="0.4883" style="stop-color:#98D268"/>
				<stop  offset="1" style="stop-color:#A5F2B6"/>
			</linearGradient>
			<path class="st12" d="M34.3,35.7c-0.6,0-1.2-0.5-1.2-1.2V21.4c0-0.6,0.5-1.2,1.2-1.2c0.6,0,1.2,0.5,1.2,1.2v13.1
				C35.4,35.1,34.9,35.7,34.3,35.7z"/>
		</g>
		<g>
			<linearGradient id="SVGID_14_" gradientUnits="userSpaceOnUse" x1="-15.5712" y1="79.2053" x2="68.703" y2="21.4484">
				<stop  offset="0" style="stop-color:#96C854"/>
				<stop  offset="0.4883" style="stop-color:#98D268"/>
				<stop  offset="1" style="stop-color:#A5F2B6"/>
			</linearGradient>
			<path class="st13" d="M34.3,48.7c-0.6,0-1.2-0.5-1.2-1.2v-4.9c0-0.6,0.5-1.2,1.2-1.2c0.6,0,1.2,0.5,1.2,1.2v4.9
				C35.4,48.2,34.9,48.7,34.3,48.7z"/>
		</g>
		<g>
			<linearGradient id="SVGID_15_" gradientUnits="userSpaceOnUse" x1="-14.0112" y1="81.4815" x2="70.2629" y2="23.7247">
				<stop  offset="0" style="stop-color:#96C854"/>
				<stop  offset="0.4883" style="stop-color:#98D268"/>
				<stop  offset="1" style="stop-color:#A5F2B6"/>
			</linearGradient>
			<path class="st14" d="M39.1,48.7c-0.6,0-1.2-0.5-1.2-1.2v-4.9c0-0.6,0.5-1.2,1.2-1.2c0.6,0,1.2,0.5,1.2,1.2v4.9
				C40.3,48.2,39.8,48.7,39.1,48.7z"/>
		</g>
		<g>
			<linearGradient id="SVGID_16_" gradientUnits="userSpaceOnUse" x1="-23.884" y1="67.076" x2="60.3902" y2="9.3191">
				<stop  offset="0" style="stop-color:#96C854"/>
				<stop  offset="0.4883" style="stop-color:#98D268"/>
				<stop  offset="1" style="stop-color:#A5F2B6"/>
			</linearGradient>
			<path class="st15" d="M39.1,27.6c-0.6,0-1.2-0.5-1.2-1.2v-4.9c0-0.6,0.5-1.2,1.2-1.2c0.6,0,1.2,0.5,1.2,1.2v4.9
				C40.3,27,39.8,27.6,39.1,27.6z"/>
		</g>
	</g>
</g>
</svg>
