<?xml version="1.0" encoding="utf-8"?>
<!-- Generator: Adobe Illustrator 25.2.1, SVG Export Plug-In . SVG Version: 6.00 Build 0)  -->
<svg version="1.1" id="Layer_1" xmlns="http://www.w3.org/2000/svg" xmlns:xlink="http://www.w3.org/1999/xlink" x="0px" y="0px"
	 viewBox="0 0 75 77" style="enable-background:new 0 0 75 77;" xml:space="preserve">
<style type="text/css">
	.st0{fill:url(#SVGID_1_);}
	.st1{fill:url(#SVGID_2_);}
	.st2{fill:url(#SVGID_3_);}
	.st3{fill:url(#SVGID_4_);}
	.st4{fill:url(#SVGID_5_);}
	.st5{fill:url(#SVGID_6_);}
	.st6{fill:url(#SVGID_7_);}
	.st7{fill:url(#SVGID_8_);}
	.st8{fill:url(#SVGID_9_);}
	.st9{fill:url(#SVGID_10_);}
	.st10{fill:url(#SVGID_11_);}
	.st11{fill:url(#SVGID_12_);}
	.st12{fill:url(#SVGID_13_);}
	.st13{fill:url(#SVGID_14_);}
</style>
<g>
	<g>
		<g>
			<linearGradient id="SVGID_1_" gradientUnits="userSpaceOnUse" x1="-16.2578" y1="92.7317" x2="55.9383" y2="22.4426">
				<stop  offset="0" style="stop-color:#96C854"/>
				<stop  offset="0.4883" style="stop-color:#98D268"/>
				<stop  offset="1" style="stop-color:#A5F2B6"/>
			</linearGradient>
			<path class="st0" d="M25.2,63.5h-2.9c-5,0-7.1-2.2-7.1-7.5v-1.3c0-5.3,2.1-7.5,7.1-7.5h2.9c0.7,0,1.2,0.6,1.2,1.2
				s-0.6,1.2-1.2,1.2h-2.9c-3.2,0-4.6,0.7-4.6,5v1.3c0,4.3,1.4,5,4.6,5h2.9c0.7,0,1.2,0.6,1.2,1.2S25.9,63.5,25.2,63.5z"/>
		</g>
		<g>
			<linearGradient id="SVGID_2_" gradientUnits="userSpaceOnUse" x1="-19.357" y1="89.5484" x2="52.8391" y2="19.2594">
				<stop  offset="0" style="stop-color:#96C854"/>
				<stop  offset="0.4883" style="stop-color:#98D268"/>
				<stop  offset="1" style="stop-color:#A5F2B6"/>
			</linearGradient>
			<path class="st1" d="M21.4,54.7h-7.5c-0.7,0-1.2-0.6-1.2-1.2c0-0.6,0.6-1.2,1.2-1.2h7.5c0.7,0,1.2,0.6,1.2,1.2
				C22.6,54.1,22.1,54.7,21.4,54.7z"/>
		</g>
		<g>
			<linearGradient id="SVGID_3_" gradientUnits="userSpaceOnUse" x1="-17.4577" y1="91.4992" x2="54.7384" y2="21.2102">
				<stop  offset="0" style="stop-color:#96C854"/>
				<stop  offset="0.4883" style="stop-color:#98D268"/>
				<stop  offset="1" style="stop-color:#A5F2B6"/>
			</linearGradient>
			<path class="st2" d="M21.4,58.5h-7.5c-0.7,0-1.2-0.6-1.2-1.2s0.6-1.2,1.2-1.2h7.5c0.7,0,1.2,0.6,1.2,1.2S22.1,58.5,21.4,58.5z"/>
		</g>
		<g>
			<linearGradient id="SVGID_4_" gradientUnits="userSpaceOnUse" x1="-12.7053" y1="96.3805" x2="59.4908" y2="26.0915">
				<stop  offset="0" style="stop-color:#96C854"/>
				<stop  offset="0.4883" style="stop-color:#98D268"/>
				<stop  offset="1" style="stop-color:#A5F2B6"/>
			</linearGradient>
			<path class="st3" d="M54,39c-0.4,0-0.8-0.2-1.1-0.6l-4.3-7.1c-0.1-0.2-0.2-0.4-0.2-0.6v-1.4c0-0.7,0.6-1.2,1.2-1.2
				c0.7,0,1.2,0.6,1.2,1.2v1.1l4.1,6.9c0.4,0.6,0.2,1.3-0.4,1.7C54.4,38.9,54.2,39,54,39z"/>
		</g>
		<g>
			<linearGradient id="SVGID_5_" gradientUnits="userSpaceOnUse" x1="-10.6633" y1="98.478" x2="61.5328" y2="28.1889">
				<stop  offset="0" style="stop-color:#96C854"/>
				<stop  offset="0.4883" style="stop-color:#98D268"/>
				<stop  offset="1" style="stop-color:#A5F2B6"/>
			</linearGradient>
			<path class="st4" d="M54,39c-0.2,0-0.4-0.1-0.6-0.2c-0.6-0.4-0.8-1.1-0.4-1.7l4.1-6.9v-1.1c0-0.7,0.6-1.2,1.2-1.2
				c0.7,0,1.2,0.6,1.2,1.2v1.4c0,0.3-0.1,0.4-0.2,0.6L55,38.3C54.8,38.8,54.4,39,54,39z"/>
		</g>
		<g>
			<linearGradient id="SVGID_6_" gradientUnits="userSpaceOnUse" x1="-7.0169" y1="102.2233" x2="65.1792" y2="31.9343">
				<stop  offset="0" style="stop-color:#96C854"/>
				<stop  offset="0.4883" style="stop-color:#98D268"/>
				<stop  offset="1" style="stop-color:#A5F2B6"/>
			</linearGradient>
			<path class="st5" d="M54,49c-0.7,0-1.2-0.6-1.2-1.2v-10c0-0.7,0.6-1.2,1.2-1.2c0.7,0,1.2,0.6,1.2,1.2v10C55.2,48.5,54.7,49,54,49
				z"/>
		</g>
		<g>
			<linearGradient id="SVGID_7_" gradientUnits="userSpaceOnUse" x1="-8.0756" y1="101.1358" x2="64.1205" y2="30.8468">
				<stop  offset="0" style="stop-color:#96C854"/>
				<stop  offset="0.4883" style="stop-color:#98D268"/>
				<stop  offset="1" style="stop-color:#A5F2B6"/>
			</linearGradient>
			<path class="st6" d="M58.3,41.9h-8.6c-0.7,0-1.2-0.6-1.2-1.2s0.6-1.2,1.2-1.2h8.6c0.7,0,1.2,0.6,1.2,1.2S58.9,41.9,58.3,41.9z"/>
		</g>
		<g>
			<linearGradient id="SVGID_8_" gradientUnits="userSpaceOnUse" x1="-5.9763" y1="103.2921" x2="66.2197" y2="33.003">
				<stop  offset="0" style="stop-color:#96C854"/>
				<stop  offset="0.4883" style="stop-color:#98D268"/>
				<stop  offset="1" style="stop-color:#A5F2B6"/>
			</linearGradient>
			<path class="st7" d="M58.3,46.1h-8.6c-0.7,0-1.2-0.6-1.2-1.2c0-0.7,0.6-1.2,1.2-1.2h8.6c0.7,0,1.2,0.6,1.2,1.2
				C59.5,45.6,58.9,46.1,58.3,46.1z"/>
		</g>
		<g>
			<linearGradient id="SVGID_9_" gradientUnits="userSpaceOnUse" x1="-33.946" y1="74.5635" x2="38.25" y2="4.2745">
				<stop  offset="0" style="stop-color:#96C854"/>
				<stop  offset="0.4883" style="stop-color:#98D268"/>
				<stop  offset="1" style="stop-color:#A5F2B6"/>
			</linearGradient>
			<path class="st8" d="M23.8,25.7h-5.5c-0.7,0-1.2-0.6-1.2-1.2c0-0.7,0.6-1.2,1.2-1.2h5.5c0.8,0,1.5-0.7,1.5-1.5s-0.7-1.5-1.5-1.5
				h-1.4c-2.2,0-4-1.8-4-4s1.8-4,4-4H28c0.7,0,1.2,0.6,1.2,1.2c0,0.7-0.6,1.2-1.2,1.2h-5.5c-0.8,0-1.5,0.7-1.5,1.5
				c0,0.8,0.7,1.5,1.5,1.5h1.4c2.2,0,4,1.8,4,4C27.8,23.9,26.1,25.7,23.8,25.7z"/>
		</g>
		<g>
			<linearGradient id="SVGID_10_" gradientUnits="userSpaceOnUse" x1="-29.8757" y1="78.7443" x2="42.3204" y2="8.4553">
				<stop  offset="0" style="stop-color:#96C854"/>
				<stop  offset="0.4883" style="stop-color:#98D268"/>
				<stop  offset="1" style="stop-color:#A5F2B6"/>
			</linearGradient>
			<path class="st9" d="M23.8,29.7c-0.7,0-1.2-0.6-1.2-1.2v-4.1c0-0.7,0.6-1.2,1.2-1.2c0.7,0,1.2,0.6,1.2,1.2v4.1
				C25.1,29.2,24.5,29.7,23.8,29.7z"/>
		</g>
		<g>
			<linearGradient id="SVGID_11_" gradientUnits="userSpaceOnUse" x1="-37.4102" y1="71.0054" x2="34.7859" y2="0.7164">
				<stop  offset="0" style="stop-color:#96C854"/>
				<stop  offset="0.4883" style="stop-color:#98D268"/>
				<stop  offset="1" style="stop-color:#A5F2B6"/>
			</linearGradient>
			<path class="st10" d="M23.8,14.7c-0.7,0-1.2-0.6-1.2-1.2V9.3c0-0.7,0.6-1.2,1.2-1.2c0.7,0,1.2,0.6,1.2,1.2v4.1
				C25.1,14.1,24.5,14.7,23.8,14.7z"/>
		</g>
		<g>
			<linearGradient id="SVGID_12_" gradientUnits="userSpaceOnUse" x1="-16.5904" y1="92.39" x2="55.6056" y2="22.101">
				<stop  offset="0" style="stop-color:#96C854"/>
				<stop  offset="0.4883" style="stop-color:#98D268"/>
				<stop  offset="1" style="stop-color:#A5F2B6"/>
			</linearGradient>
			<path class="st11" d="M21.9,76.8C9.8,76.8,0,67,0,55s9.8-21.9,21.9-21.9c2.2,0,4.4,0.3,6.5,1c0.6,0.2,1,0.9,0.8,1.5
				s-0.9,1-1.5,0.8c-1.8-0.6-3.8-0.9-5.8-0.9C11.2,35.6,2.5,44.3,2.5,55s8.7,19.4,19.4,19.4c8.6,0,16.2-5.7,18.6-13.9
				c0.2-0.6,0.9-1,1.5-0.8s1,0.9,0.8,1.5C40.1,70.3,31.5,76.8,21.9,76.8z"/>
		</g>
		<g>
			<linearGradient id="SVGID_13_" gradientUnits="userSpaceOnUse" x1="-9.2906" y1="99.8879" x2="62.9055" y2="29.5989">
				<stop  offset="0" style="stop-color:#96C854"/>
				<stop  offset="0.4883" style="stop-color:#98D268"/>
				<stop  offset="1" style="stop-color:#A5F2B6"/>
			</linearGradient>
			<path class="st12" d="M52.3,60.4c-8.5,0-16.1-4.6-20.1-12.1c-0.3-0.6-0.1-1.3,0.5-1.7c0.6-0.3,1.3-0.1,1.7,0.5
				c3.5,6.7,10.4,10.8,17.9,10.8c11.1,0,20.2-9.1,20.2-20.2s-9.1-20.2-20.2-20.2c-1.5,0-2.9,0.1-4.3,0.4c-0.7,0.1-1.3-0.3-1.5-1
				c-0.1-0.6,0.3-1.3,1-1.5c1.6-0.3,3.2-0.5,4.8-0.5C64.8,15,75,25.2,75,37.7S64.8,60.4,52.3,60.4z"/>
		</g>
		<g>
			<linearGradient id="SVGID_14_" gradientUnits="userSpaceOnUse" x1="-32.2418" y1="76.314" x2="39.9543" y2="6.0249">
				<stop  offset="0" style="stop-color:#96C854"/>
				<stop  offset="0.4883" style="stop-color:#98D268"/>
				<stop  offset="1" style="stop-color:#A5F2B6"/>
			</linearGradient>
			<path class="st13" d="M37.5,38.4c-0.3,0-0.6-0.1-0.9-0.4c-0.4-0.5-0.4-1.3,0.1-1.7c3.9-3.6,6.2-8.8,6.2-14.2
				c0-10.7-8.6-19.4-19.3-19.4S4.1,11.4,4.1,22c0,4.3,1.3,8.3,3.9,11.6c0.4,0.6,0.3,1.3-0.3,1.7S6.4,35.7,6,35.1
				C3.2,31.3,1.7,26.8,1.7,22c0-12,9.7-21.8,21.8-21.8S45.4,10,45.4,22c0,6-2.5,11.9-7,16C38.1,38.2,37.8,38.4,37.5,38.4z"/>
		</g>
	</g>
</g>
</svg>
