<?xml version="1.0" encoding="utf-8"?>
<!-- Generator: Adobe Illustrator 25.2.1, SVG Export Plug-In . SVG Version: 6.00 Build 0)  -->
<svg version="1.1" id="Layer_1" xmlns="http://www.w3.org/2000/svg" xmlns:xlink="http://www.w3.org/1999/xlink" x="0px" y="0px"
	 viewBox="0 0 65 103" style="enable-background:new 0 0 65 103;" xml:space="preserve">
<style type="text/css">
	.st0{fill:url(#SVGID_1_);}
	.st1{fill:url(#SVGID_2_);}
	.st2{fill:url(#SVGID_3_);}
	.st3{fill:url(#SVGID_4_);}
	.st4{fill:url(#SVGID_5_);}
	.st5{fill:url(#SVGID_6_);}
	.st6{fill:url(#SVGID_7_);}
</style>
<g>
	<g>
		<g>
			<linearGradient id="SVGID_1_" gradientUnits="userSpaceOnUse" x1="-11.3979" y1="115.2218" x2="58.7095" y2="27.6784">
				<stop  offset="0" style="stop-color:#96C854"/>
				<stop  offset="0.4883" style="stop-color:#98D268"/>
				<stop  offset="1" style="stop-color:#A5F2B6"/>
			</linearGradient>
			<path class="st0" d="M13.1,85.3H9v-6.2c0-3.4,2.7-6.2,6.2-6.2h14.3V77H15.1c-1.2,0-2.1,0.9-2.1,2.1L13.1,85.3L13.1,85.3z"/>
		</g>
		<g>
			<linearGradient id="SVGID_2_" gradientUnits="userSpaceOnUse" x1="7.6784" y1="130.4987" x2="77.7858" y2="42.9553">
				<stop  offset="0" style="stop-color:#96C854"/>
				<stop  offset="0.4883" style="stop-color:#98D268"/>
				<stop  offset="1" style="stop-color:#A5F2B6"/>
			</linearGradient>
			<path class="st1" d="M56,85.3h-4.1v-6.2c0-1.2-0.9-2.1-2.1-2.1h-8.2v-4h8.2c3.4,0,6.2,2.7,6.2,6.2C56,79.2,56,85.3,56,85.3z"/>
		</g>
		<g>
			<linearGradient id="SVGID_3_" gradientUnits="userSpaceOnUse" x1="4.701" y1="128.1143" x2="74.8084" y2="40.5709">
				<stop  offset="0" style="stop-color:#96C854"/>
				<stop  offset="0.4883" style="stop-color:#98D268"/>
				<stop  offset="1" style="stop-color:#A5F2B6"/>
			</linearGradient>
			<path class="st2" d="M62.2,99.6H2.8V89.4c0-3.4,2.7-6.2,6.2-6.2h24.6v4.1H9c-1.2,0-2.1,0.9-2.1,2.1v6.2h51.2v-6.2
				c0-1.2-0.9-2.1-2.1-2.1H45.8v-4.1H56c3.4,0,6.2,2.7,6.2,6.2V99.6z"/>
		</g>
		<g>
			<linearGradient id="SVGID_4_" gradientUnits="userSpaceOnUse" x1="-6.2734" y1="119.3256" x2="63.834" y2="31.7822">
				<stop  offset="0" style="stop-color:#96C854"/>
				<stop  offset="0.4883" style="stop-color:#98D268"/>
				<stop  offset="1" style="stop-color:#A5F2B6"/>
			</linearGradient>
			<polygon class="st3" points="49.9,75 45.8,75 45.8,63.9 51.1,58.7 39.7,47.2 39.7,36.1 43.8,36.1 43.8,45.5 56.9,58.7 49.9,65.7 
							"/>
		</g>
		<g>
			<linearGradient id="SVGID_5_" gradientUnits="userSpaceOnUse" x1="-17.5687" y1="110.2801" x2="52.5387" y2="22.7366">
				<stop  offset="0" style="stop-color:#96C854"/>
				<stop  offset="0.4883" style="stop-color:#98D268"/>
				<stop  offset="1" style="stop-color:#A5F2B6"/>
			</linearGradient>
			<path class="st4" d="M54.1,45.2l-7-7h-9.5c-5,0-10.2-3-10.2-8.2v-2.1h4.1V30c0,2.6,3.2,4.1,6.2,4.1h11.1l5.3,5.3l4.1-4.2v-4.4
				L44.3,17.1l2.9-2.9l15,15v7.7L54.1,45.2z"/>
		</g>
		<g>
			<linearGradient id="SVGID_6_" gradientUnits="userSpaceOnUse" x1="-28.7623" y1="101.3159" x2="41.3451" y2="13.7725">
				<stop  offset="0" style="stop-color:#96C854"/>
				<stop  offset="0.4883" style="stop-color:#98D268"/>
				<stop  offset="1" style="stop-color:#A5F2B6"/>
			</linearGradient>
			<path class="st5" d="M19.2,75h-4.1V55.4l-6.2-6.2V30c0-17.3,14.8-26.7,28.7-26.7c6,0,14.2,3,17.9,6.7l1.5,1.5l-7.6,7.6l-2.9-2.9
				l4.5-4.5c-3.5-2.4-9.2-4.3-13.4-4.3C25.7,7.5,13,15.4,13,30v17.6l6.2,6.2V75z"/>
		</g>
		<g>
			<linearGradient id="SVGID_7_" gradientUnits="userSpaceOnUse" x1="-36.3085" y1="95.2727" x2="33.7989" y2="7.7292">
				<stop  offset="0" style="stop-color:#96C854"/>
				<stop  offset="0.4883" style="stop-color:#98D268"/>
				<stop  offset="1" style="stop-color:#A5F2B6"/>
			</linearGradient>
			<path class="st6" d="M19.2,34.1h-4.1V30c0-11.3,9.2-20.4,20.5-20.4v4.1c-9,0-16.4,7.3-16.4,16.4C19.2,30,19.2,34.1,19.2,34.1z"/>
		</g>
	</g>
</g>
</svg>
