<?xml version="1.0" encoding="utf-8"?>
<!-- Generator: Adobe Illustrator 25.2.1, SVG Export Plug-In . SVG Version: 6.00 Build 0)  -->
<svg version="1.1" id="Layer_1" xmlns="http://www.w3.org/2000/svg" xmlns:xlink="http://www.w3.org/1999/xlink" x="0px" y="0px"
	 viewBox="0 0 76 66" style="enable-background:new 0 0 76 66;" xml:space="preserve">
<style type="text/css">
	.st0{fill:url(#SVGID_1_);}
	.st1{fill:url(#SVGID_2_);}
	.st2{fill:url(#SVGID_3_);}
	.st3{fill:url(#SVGID_4_);}
	.st4{fill:url(#SVGID_5_);}
	.st5{fill:url(#SVGID_6_);}
	.st6{fill:url(#SVGID_7_);}
	.st7{fill:url(#SVGID_8_);}
	.st8{fill:url(#SVGID_9_);}
	.st9{fill:url(#SVGID_10_);}
	.st10{fill:url(#SVGID_11_);}
	.st11{fill:url(#SVGID_12_);}
	.st12{fill:url(#SVGID_13_);}
	.st13{fill:url(#SVGID_14_);}
	.st14{fill:url(#SVGID_15_);}
</style>
<g>
	<g id="dollar_coins">
		<g>
			<g>
				<linearGradient id="SVGID_1_" gradientUnits="userSpaceOnUse" x1="3.6202" y1="78.4171" x2="63.7382" y2="27.9253">
					<stop  offset="0" style="stop-color:#96C854"/>
					<stop  offset="0.4883" style="stop-color:#98D268"/>
					<stop  offset="1" style="stop-color:#A5F2B6"/>
				</linearGradient>
				<path class="st0" d="M49.5,65.3c-14,0-25.4-11.4-25.4-25.4s11.4-25.4,25.4-25.4S74.9,26,74.9,39.9S63.5,65.3,49.5,65.3z
					 M49.5,16.8c-12.7,0-23.1,10.3-23.1,23.1S36.8,63,49.5,63s23.1-10.4,23.1-23.1S62.3,16.8,49.5,16.8z"/>
			</g>
			<g>
				<g>
					<linearGradient id="SVGID_2_" gradientUnits="userSpaceOnUse" x1="3.7482" y1="78.5696" x2="63.8662" y2="28.0778">
						<stop  offset="0" style="stop-color:#96C854"/>
						<stop  offset="0.4883" style="stop-color:#98D268"/>
						<stop  offset="1" style="stop-color:#A5F2B6"/>
					</linearGradient>
					<path class="st1" d="M51.3,51.5h-3.4c-0.2,0-4.2-0.1-6.2-4.1c-0.3-0.5-0.1-1.3,0.5-1.6c0.5-0.3,1.3-0.1,1.6,0.5
						c1.4,2.8,4,2.8,4.2,2.8h3.4c2.2,0,4-1.8,4-4s-1.8-4-4-4H48c-3.5,0-6.3-2.8-6.3-6.3s2.8-6.3,6.3-6.3h3.4c0.2,0,4.2,0.1,6.2,4.1
						c0.3,0.5,0.1,1.3-0.5,1.6c-0.5,0.3-1.3,0.1-1.6-0.5c-1.4-2.8-4-2.8-4.2-2.8h-3.4c-2.2,0-4,1.8-4,4s1.8,4,4,4h3.5
						c3.5,0,6.3,2.8,6.3,6.3S54.8,51.5,51.3,51.5z"/>
				</g>
				<g>
					<linearGradient id="SVGID_3_" gradientUnits="userSpaceOnUse" x1="-2.3352" y1="71.3264" x2="57.7828" y2="20.8345">
						<stop  offset="0" style="stop-color:#96C854"/>
						<stop  offset="0.4883" style="stop-color:#98D268"/>
						<stop  offset="1" style="stop-color:#A5F2B6"/>
					</linearGradient>
					<path class="st2" d="M49.5,30.7c-0.7,0-1.1-0.5-1.1-1.1V26c0-0.7,0.5-1.1,1.1-1.1c0.7,0,1.1,0.5,1.1,1.1v3.4
						C50.7,30.1,50.2,30.7,49.5,30.7z"/>
				</g>
				<g>
					<linearGradient id="SVGID_4_" gradientUnits="userSpaceOnUse" x1="9.6356" y1="85.5794" x2="69.7535" y2="35.0875">
						<stop  offset="0" style="stop-color:#96C854"/>
						<stop  offset="0.4883" style="stop-color:#98D268"/>
						<stop  offset="1" style="stop-color:#A5F2B6"/>
					</linearGradient>
					<path class="st3" d="M49.5,54.9c-0.7,0-1.1-0.5-1.1-1.1v-3.4c0-0.7,0.5-1.1,1.1-1.1c0.7,0,1.1,0.5,1.1,1.1v3.4
						C50.7,54.3,50.2,54.9,49.5,54.9z"/>
				</g>
			</g>
		</g>
		<g>
			<g>
				<g>
					<linearGradient id="SVGID_5_" gradientUnits="userSpaceOnUse" x1="-20.1386" y1="50.1288" x2="39.9793" y2="-0.3631">
						<stop  offset="0" style="stop-color:#96C854"/>
						<stop  offset="0.4883" style="stop-color:#98D268"/>
						<stop  offset="1" style="stop-color:#A5F2B6"/>
					</linearGradient>
					<path class="st4" d="M29.9,16.8H10.3c-0.7,0-1.1-0.5-1.1-1.1V3c0-1.3,1-2.3,2.3-2.3h42.7c1.3,0,2.3,1,2.3,2.3v5.8
						c0,0.7-0.5,1.1-1.1,1.1s-1.1-0.5-1.1-1.1V3H11.5v11.5H30c0.7,0,1.1,0.5,1.1,1.1C31.1,16.3,30.6,16.8,29.9,16.8z"/>
				</g>
				<g>
					<linearGradient id="SVGID_6_" gradientUnits="userSpaceOnUse" x1="-23.6376" y1="45.9628" x2="36.4804" y2="-4.529">
						<stop  offset="0" style="stop-color:#96C854"/>
						<stop  offset="0.4883" style="stop-color:#98D268"/>
						<stop  offset="1" style="stop-color:#A5F2B6"/>
					</linearGradient>
					<path class="st5" d="M17.2,16.8c-0.7,0-1.1-0.5-1.1-1.1V7.6c0-0.7,0.5-1.1,1.1-1.1c0.7,0,1.1,0.5,1.1,1.1v8.1
						C18.4,16.3,17.9,16.8,17.2,16.8z"/>
				</g>
				<g>
					<linearGradient id="SVGID_7_" gradientUnits="userSpaceOnUse" x1="-19.8062" y1="50.5247" x2="40.3118" y2="3.280612e-02">
						<stop  offset="0" style="stop-color:#96C854"/>
						<stop  offset="0.4883" style="stop-color:#98D268"/>
						<stop  offset="1" style="stop-color:#A5F2B6"/>
					</linearGradient>
					<path class="st6" d="M26.5,16.8c-0.7,0-1.1-0.5-1.1-1.1V7.6c0-0.7,0.5-1.1,1.1-1.1s1.1,0.5,1.1,1.1v8.1
						C27.6,16.3,27.1,16.8,26.5,16.8z"/>
				</g>
			</g>
			<g>
				<g>
					<linearGradient id="SVGID_8_" gradientUnits="userSpaceOnUse" x1="-20.0152" y1="50.2758" x2="40.1028" y2="-0.2161">
						<stop  offset="0" style="stop-color:#96C854"/>
						<stop  offset="0.4883" style="stop-color:#98D268"/>
						<stop  offset="1" style="stop-color:#A5F2B6"/>
					</linearGradient>
					<path class="st7" d="M20.7,30.7h-15c-1.3,0-2.3-1-2.3-2.3V16.8c0-1.3,1-2.3,2.3-2.3h4.6c0.7,0,1.1,0.5,1.1,1.1
						c0,0.7-0.5,1.1-1.1,1.1H5.7v11.5h15c0.7,0,1.1,0.5,1.1,1.1C21.8,30.1,21.3,30.7,20.7,30.7z"/>
				</g>
				<g>
					<linearGradient id="SVGID_9_" gradientUnits="userSpaceOnUse" x1="-19.1728" y1="51.2788" x2="40.9452" y2="0.7869">
						<stop  offset="0" style="stop-color:#96C854"/>
						<stop  offset="0.4883" style="stop-color:#98D268"/>
						<stop  offset="1" style="stop-color:#A5F2B6"/>
					</linearGradient>
					<path class="st8" d="M11.5,30.7c-0.7,0-1.1-0.5-1.1-1.1v-8.1c0-0.7,0.5-1.1,1.1-1.1c0.7,0,1.1,0.5,1.1,1.1v8.1
						C12.6,30.1,12.1,30.7,11.5,30.7z"/>
				</g>
				<g>
					<linearGradient id="SVGID_10_" gradientUnits="userSpaceOnUse" x1="-15.3674" y1="55.8096" x2="44.7506" y2="5.3178">
						<stop  offset="0" style="stop-color:#96C854"/>
						<stop  offset="0.4883" style="stop-color:#98D268"/>
						<stop  offset="1" style="stop-color:#A5F2B6"/>
					</linearGradient>
					<path class="st9" d="M20.7,30.7c-0.7,0-1.1-0.5-1.1-1.1v-8.1c0-0.7,0.5-1.1,1.1-1.1c0.7,0,1.1,0.5,1.1,1.1v8.1
						C21.8,30.1,21.3,30.7,20.7,30.7z"/>
				</g>
			</g>
			<g>
				<g>
					<linearGradient id="SVGID_11_" gradientUnits="userSpaceOnUse" x1="-12.6343" y1="59.0638" x2="47.4837" y2="8.572">
						<stop  offset="0" style="stop-color:#96C854"/>
						<stop  offset="0.4883" style="stop-color:#98D268"/>
						<stop  offset="1" style="stop-color:#A5F2B6"/>
					</linearGradient>
					<path class="st10" d="M18.4,44.5h-8.1c-0.7,0-1.1-0.5-1.1-1.1V29.5c0-0.7,0.5-1.1,1.1-1.1c0.7,0,1.1,0.5,1.1,1.1v12.7h6.9
						c0.7,0,1.1,0.5,1.1,1.1S19,44.5,18.4,44.5z"/>
				</g>
				<g>
					<linearGradient id="SVGID_12_" gradientUnits="userSpaceOnUse" x1="-9.9958" y1="62.2054" x2="50.1222" y2="11.7135">
						<stop  offset="0" style="stop-color:#96C854"/>
						<stop  offset="0.4883" style="stop-color:#98D268"/>
						<stop  offset="1" style="stop-color:#A5F2B6"/>
					</linearGradient>
					<path class="st11" d="M17.2,44.5c-0.7,0-1.1-0.5-1.1-1.1v-8.1c0-0.7,0.5-1.1,1.1-1.1c0.7,0,1.1,0.5,1.1,1.1v8.1
						C18.4,44,17.9,44.5,17.2,44.5z"/>
				</g>
			</g>
			<g>
				<g>
					<linearGradient id="SVGID_13_" gradientUnits="userSpaceOnUse" x1="-6.619" y1="66.2259" x2="53.499" y2="15.7341">
						<stop  offset="0" style="stop-color:#96C854"/>
						<stop  offset="0.4883" style="stop-color:#98D268"/>
						<stop  offset="1" style="stop-color:#A5F2B6"/>
					</linearGradient>
					<path class="st12" d="M21.8,58.3H3.4c-1.3,0-2.3-1-2.3-2.3V44.5c0-1.3,1-2.3,2.3-2.3h6.9c0.7,0,1.1,0.5,1.1,1.1
						s-0.5,1.1-1.1,1.1H3.4V56h18.5c0.7,0,1.1,0.5,1.1,1.1C23,57.8,22.5,58.3,21.8,58.3z"/>
				</g>
				<g>
					<linearGradient id="SVGID_14_" gradientUnits="userSpaceOnUse" x1="-6.5414" y1="66.3183" x2="53.5766" y2="15.8264">
						<stop  offset="0" style="stop-color:#96C854"/>
						<stop  offset="0.4883" style="stop-color:#98D268"/>
						<stop  offset="1" style="stop-color:#A5F2B6"/>
					</linearGradient>
					<path class="st13" d="M9.1,58.3c-0.7,0-1.1-0.5-1.1-1.1v-8.1C8,48.4,8.5,48,9.1,48s1.1,0.5,1.1,1.1v8.1
						C10.3,57.9,9.8,58.3,9.1,58.3z"/>
				</g>
				<g>
					<linearGradient id="SVGID_15_" gradientUnits="userSpaceOnUse" x1="-2.7101" y1="70.88" x2="57.4078" y2="20.3881">
						<stop  offset="0" style="stop-color:#96C854"/>
						<stop  offset="0.4883" style="stop-color:#98D268"/>
						<stop  offset="1" style="stop-color:#A5F2B6"/>
					</linearGradient>
					<path class="st14" d="M18.4,58.3c-0.7,0-1.1-0.5-1.1-1.1v-8.1c0-0.7,0.5-1.1,1.1-1.1c0.7,0,1.1,0.5,1.1,1.1v8.1
						C19.5,57.9,19,58.3,18.4,58.3z"/>
				</g>
			</g>
		</g>
	</g>
</g>
</svg>
