<svg xmlns="http://www.w3.org/2000/svg" width="45" height="49" viewBox="0 0 45 49">
    <g fill="none" fill-rule="evenodd" stroke="#777" stroke-linecap="round" stroke-linejoin="round" stroke-width=".938">
        <path d="M11.592 25.882l1.222.981 2.549-2.891M8.338 34.213l1.221.981 2.55-2.891M17.74 26.183h15.589M18.34 16.797h16.323M14.512 33.906h17.235M12.454 16.763l1.222.982 2.55-2.892"/>
        <path d="M34.42 40.208l8.633.197a1.046 1.046 0 0 1 1.032.984c.055 1.248.117 3.374-.05 4.252-.231 1.21-1.03 2.606-4.226 2.706-3.195.101-5.87-2.12-5.496-7.234.387-5.318 3.603-8.157 5.783-21.573 1.43-8.807.429-18.293-3.385-18.293-4.208 0-4.262 4.262-4.062 6.233.054.527-.374.982-.92.982H3.42c-.722 0-2.183-1.102-2.165-3.858.016-2.468 2.37-3.357 2.37-3.357h33.087"/>
        <path d="M39.81 48.35L7.135 48.06c-2.875-.25-7.99-6.228-1.08-18.195 5.28-9.144 1.898-21.404 1.898-21.404"/>
    </g>
</svg>
