<?xml version="1.0" encoding="UTF-8"?>
<svg width="47px" height="62px" viewBox="0 0 47 62" version="1.1" xmlns="http://www.w3.org/2000/svg" xmlns:xlink="http://www.w3.org/1999/xlink">
    <!-- Generator: sketchtool 56.3 (101010) - https://sketch.com -->
    <title>093FD589-B40F-48FF-87E1-AB49DB8ABE8B</title>
    <desc>Created with sketchtool.</desc>
    <g id="SignIn/SignUp" stroke="none" stroke-width="1" fill="none" fill-rule="evenodd" stroke-linecap="round" stroke-linejoin="round">
        <g id="Sign-Up-Desktop---B" transform="translate(-499.000000, -420.000000)" stroke="#777777" stroke-width="0.9375">
            <g id="Group-17" transform="translate(500.000000, 421.000000)">
                <path d="M45.1204813,31.6682633 L28.739138,30.8911675" id="Stroke-1"></path>
                <path d="M19.2338368,59.5195607 C20.0871765,60.2115898 27.4916642,60.3230962 33.0447404,60.1943466 C35.2168778,60.1437664 37.0983934,58.6849874 37.6773213,56.6054515 L44.9961276,32.8270097" id="Stroke-3"></path>
                <path d="M0.59733779,41.2671208 C0.59733779,41.2671208 6.07052199,23.6422201 7.92077551,17.1346176 C8.35381356,15.6126134 9.40862017,15.2321123 10.7158393,16.1379577 L27.3762259,28.846233 C28.5491338,29.6578153 29.0771161,31.1165942 28.6927079,32.4834092 L21.2754839,58.2586193 C20.9547579,59.4047207 19.5861723,59.8898308 18.6077842,59.204699 L2.31906931,46.0595947 C0.782594712,44.9836159 0.0925126757,43.065017 0.59733779,41.2671208 Z" id="Stroke-5"></path>
                <path d="M38.2186189,25.285042 L43.4637055,29.4441139 C44.7500833,30.3327161 45.4146925,31.3362732 44.9967066,32.8272396" id="Stroke-7"></path>
                <path d="M26.1696244,16.339014 L29.1893123,18.6277681" id="Stroke-9"></path>
                <path d="M9.2212791,15.6250285 L16.2286222,15.4181095" id="Stroke-11"></path>
                <path d="M22.6123442,19.1258681 C23.0372772,18.8718175 23.4147382,18.5246534 23.5143138,18.0177019 C24.1407138,14.813906 26.7401,6.7003821 30.4857634,8.2177881 C35.6208537,10.2984736 30.3803985,21.9422656 29.3452755,25.0023677 C29.1797021,25.4943751 29.3707483,26.3117051 29.6451601,26.7209449 C30.6825989,28.2590428 32.7852649,29.1430468 34.7304626,28.480906 C35.096345,28.355605 35.6162223,27.88314 35.7493757,27.4968912 C36.9639664,23.9539781 44.9960118,5.9370809 34.1619554,1.27220699 C23.5536809,-3.29495517 18.6617403,12.0136022 17.7539814,16.6692797 C17.6057758,17.4268332 18.0260775,18.042992 18.5633226,18.5200552 C19.723494,19.5477529 21.4753298,19.8075512 22.6123442,19.1258681 Z" id="Stroke-13"></path>
                <path d="M12.0480682,37.0443638 C11.8037606,36.5960393 10.9955773,35.2108315 11.4425096,33.8578112 C11.8963891,32.4783512 13.0924541,31.6679184 14.249152,31.692059 C15.7462595,31.7242464 16.7732776,32.4921458 17.13916,34.003804 C17.6243015,36.0005724 16.408553,38.0847065 14.6231394,38.4525625 C14.6231394,38.4525625 14.3464119,42.3311442 14.3649376,42.8116561 C14.3985154,43.7255484 13.767484,45.0831669 12.6212068,44.5244856 L9.82151153,42.464492 C9.03648532,42.0184666 9.12564022,41.360924 9.49383835,40.6010715 C9.85277364,39.8607613 12.0480682,37.0443638 12.0480682,37.0443638 Z" id="Stroke-15"></path>
            </g>
        </g>
    </g>
</svg>