<svg xmlns="http://www.w3.org/2000/svg" xmlns:xlink="http://www.w3.org/1999/xlink" width="290" height="179" viewBox="0 0 290 179">
    <defs>
        <rect id="prefix__a" width="290" height="179" x="0" y="0" rx="10"/>
        <rect id="prefix__c" width="230" height="240" x="12" y="29" rx="5"/>
        <rect id="prefix__g" width="35" height="35" x="0" y="0" rx="4"/>
        <rect id="prefix__i" width="230" height="240" x="0" y="0" rx="5"/>
        <rect id="prefix__l" width="25.575" height="18" x=".165" y=".165" rx="2"/>
        <rect id="prefix__o" width="25" height="15" x="0" y="0" rx="2"/>
        <rect id="prefix__r" width="90" height="60" x="0" y="0" rx="3"/>
        <rect id="prefix__t" width="90" height="60" x="0" y="0" rx="3"/>
        <linearGradient id="prefix__e" x1="0%" x2="122.816%" y1="50%" y2="50%">
            <stop offset="0%" stop-color="#FFF"/>
            <stop offset="100%" stop-color="#FFF" stop-opacity="0"/>
        </linearGradient>
        <linearGradient id="prefix__f" x1="120.454%" x2="35.454%" y1="50%" y2="50%">
            <stop offset="0%" stop-color="#FFF" stop-opacity="0"/>
            <stop offset="100%" stop-color="#FFF"/>
        </linearGradient>
        <linearGradient id="prefix__h" x1="50%" x2="50%" y1="0%" y2="100%">
            <stop offset="0%" stop-color="#FFF" stop-opacity=".75"/>
            <stop offset="100%" stop-color="#2C2C2C" stop-opacity="0"/>
        </linearGradient>
        <linearGradient id="prefix__p" x1="50%" x2="50%" y1="0%" y2="138.853%">
            <stop offset="0%" stop-color="#4D4D4D"/>
            <stop offset="100%" stop-color="#848484"/>
        </linearGradient>
        <linearGradient id="prefix__q" x1="0%" x2="122.816%" y1="50%" y2="50%">
            <stop offset="0%" stop-color="#FFF"/>
            <stop offset="100%" stop-color="#FFF" stop-opacity="0"/>
        </linearGradient>
        <linearGradient id="prefix__v" x1="100%" x2="36.8%" y1="50%" y2="50%">
            <stop offset="0%" stop-color="#D8D8D8" stop-opacity=".5"/>
            <stop offset="100%" stop-color="#EEE" stop-opacity=".5"/>
        </linearGradient>
        <filter id="prefix__d" width="126.5%" height="125.4%" x="-13.3%" y="-12.3%" filterUnits="objectBoundingBox">
            <feMorphology in="SourceAlpha" operator="dilate" radius="2" result="shadowSpreadOuter1"/>
            <feOffset dy="1" in="shadowSpreadOuter1" result="shadowOffsetOuter1"/>
            <feGaussianBlur in="shadowOffsetOuter1" result="shadowBlurOuter1" stdDeviation="8"/>
            <feColorMatrix in="shadowBlurOuter1" values="0 0 0 0 0 0 0 0 0 0 0 0 0 0 0 0 0 0 0.05 0"/>
        </filter>
        <filter id="prefix__j" width="126.5%" height="125.4%" x="-13.3%" y="-12.3%" filterUnits="objectBoundingBox">
            <feMorphology in="SourceAlpha" operator="dilate" radius="2" result="shadowSpreadOuter1"/>
            <feOffset dy="1" in="shadowSpreadOuter1" result="shadowOffsetOuter1"/>
            <feGaussianBlur in="shadowOffsetOuter1" result="shadowBlurOuter1" stdDeviation="8"/>
            <feColorMatrix in="shadowBlurOuter1" values="0 0 0 0 0 0 0 0 0 0 0 0 0 0 0 0 0 0 0.1 0"/>
        </filter>
        <filter id="prefix__n" width="156%" height="193.3%" x="-36%" y="-60%" filterUnits="objectBoundingBox">
            <feOffset dx="-2" dy="-2" in="SourceAlpha" result="shadowOffsetOuter1"/>
            <feGaussianBlur in="shadowOffsetOuter1" result="shadowBlurOuter1" stdDeviation="2"/>
            <feColorMatrix in="shadowBlurOuter1" values="0 0 0 0 0 0 0 0 0 0 0 0 0 0 0 0 0 0 0.25 0"/>
        </filter>
    </defs>
    <g fill="none" fill-rule="evenodd">
        <mask id="prefix__b" fill="#fff">
            <use xlink:href="#prefix__a"/>
        </mask>
        <use fill="#FFF" xlink:href="#prefix__a"/>
        <g mask="url(#prefix__b)">
            <g transform="translate(8 28)">
                <g>
                    <use fill="#000" filter="url(#prefix__d)" xlink:href="#prefix__c"/>
                    <use fill="#FFF" xlink:href="#prefix__c"/>
                </g>
                <g>
                    <path fill="#F6FCEE" fill-opacity=".5" d="M6.656 28.672L16.446 22.971 31.132 22.971 36.027 30.098 44.593 30.098 58.055 24.397 69.069 28.672 77.636 21.546 93.545 15.845 100.888 10.144 118.021 7.293 124.14 11.569 133.931 15.845 146.169 10.144 157.183 10.856 162.078 10.856 173.092 0.167 190.225 7.293 196.344 0.167 196.344 56.568 6.656 56.568z" transform="translate(19 107)"/>
                    <path stroke="#6BAD10" stroke-linecap="round" stroke-linejoin="round" stroke-width=".5" d="M6.656 29.69L16.446 23.786 31.132 23.786 36.027 31.167 44.593 31.167 58.055 25.262 69.069 29.69 77.636 22.31 93.545 16.405 100.888 10.5 118.021 7.548 124.14 11.976 133.931 16.405 146.169 10.5 157.183 11.238 162.078 11.238 173.092 0.167 190.225 7.548 196.344 0.167" transform="translate(19 107)"/>
                    <path fill="url(#prefix__e)" d="M84.708 -61.724L118.292 -61.724 118.292 141.276 84.708 141.276z" transform="translate(19 107) rotate(-90 101.5 39.776)"/>
                </g>
                <g>
                    <text fill="#6BAD10" font-family="DINOT-Medium, DIN OT" font-size="12" font-weight="400" letter-spacing="-.15" transform="translate(140.5 100)">
                        <tspan x="50.134" y="12.5">0.15%</tspan>
                    </text>
                    <path fill="#6AAC0E" d="M44 6.5L47 9.5 41 9.5z" transform="translate(140.5 100)"/>
                </g>
                <path fill="url(#prefix__f)" d="M0 0H67V158H0z"/>
                <g transform="translate(32 49)">
                    <use fill="#F7F7F7" xlink:href="#prefix__g"/>
                    <rect fill="url(#prefix__h)" style="mix-blend-mode:overlay" width="35" height="35" rx="4"/>
                    <g fill="#000">
                        <path d="M11.805 14.606c1.754 3.083 3.872 4.159 5.978 4.362-2.661 1.029-5.28-.355-5.978-4.362M9.362 2.998c2.043 6.724-1.23 10.805 1.242 15.12 1.699 2.964 5.384 4.76 9.145 2.55 3.48-2.046 3.957-6.289 2.226-9.234-2.465-4.193-7.73-3.382-12.613-8.436M2.426 5.918c.654 1.648 1.628 2.328 2.657 2.575-1.39.325-2.59-.543-2.657-2.575M2.025 0c.543 3.472-1.362 5.265-.438 7.573.635 1.586 2.335 2.732 4.35 1.9 1.866-.772 2.398-2.84 1.745-4.418C6.754 2.807 4.091 2.842 2.025 0" transform="translate(5 6)"/>
                    </g>
                </g>
                <path fill="#393939" fill-rule="nonzero" d="M82.571 72.137c1.532 0 2.707-.445 3.528-1.333.82-.889 1.23-2.16 1.23-3.815 0-1.659-.407-2.93-1.22-3.814-.814-.884-1.988-1.326-3.524-1.326s-2.715.438-3.538 1.316c-.822.877-1.234 2.147-1.234 3.81 0 1.664.41 2.94 1.23 3.829.821.888 1.997 1.333 3.528 1.333zm0-1.778c-.843 0-1.476-.282-1.9-.847-.424-.565-.636-1.406-.636-2.523 0-1.116.214-1.958.643-2.526.428-.567 1.064-.85 1.907-.85 1.682 0 2.522 1.125 2.522 3.376 0 2.247-.845 3.37-2.536 3.37zM91.345 72v-9.994h-2.12V72h2.12zm8.513 0v-1.75h-4.054v-8.244h-2.119V72h6.173z"/>
            </g>
        </g>
        <g mask="url(#prefix__b)">
            <g>
                <g transform="translate(99 16)">
                    <mask id="prefix__k" fill="#fff">
                        <use xlink:href="#prefix__i"/>
                    </mask>
                    <use fill="#000" filter="url(#prefix__j)" xlink:href="#prefix__i"/>
                    <use fill="#FFF" xlink:href="#prefix__i"/>
                    <g mask="url(#prefix__k)">
                        <g transform="translate(25 31)">
                            <mask id="prefix__m" fill="#fff">
                                <use xlink:href="#prefix__l"/>
                            </mask>
                            <use fill="#000" fill-rule="nonzero" xlink:href="#prefix__l"/>
                            <path fill="#FFF" fill-rule="nonzero" d="M0 0H25.85V18.15H0z" mask="url(#prefix__m)"/>
                            <path fill="#FE352E" fill-rule="nonzero" d="M12.1 0H25.85V1.65H12.1zM12.1 2.75H25.85V4.4H12.1zM12.1 5.5H25.85V7.15H12.1zM12.1 8.25H25.85V9.9H12.1zM0 11H25.85V12.65H0zM0 13.75H25.85V15.4H0zM0 16.5H25.85V18.15H0z" mask="url(#prefix__m)"/>
                            <path fill="#08399C" fill-rule="nonzero" d="M0 0H12.1V9.9H0z" mask="url(#prefix__m)"/>
                            <path fill="#FFF" d="M3.327 2.089L2.914 2.391 2.97 1.883 2.502 1.677 2.97 1.471 2.914 0.963 3.327 1.264 3.739 0.963 3.684 1.471 4.152 1.677 3.684 1.883 3.739 2.391z" mask="url(#prefix__m)" transform="rotate(30 3.327 1.677)"/>
                            <path fill="#FFF" d="M3.327 5.389L2.914 5.691 2.97 5.183 2.502 4.977 2.97 4.771 2.914 4.263 3.327 4.564 3.739 4.263 3.684 4.771 4.152 4.977 3.684 5.183 3.739 5.691z" mask="url(#prefix__m)" transform="rotate(30 3.327 4.977)"/>
                            <path fill="#FFF" d="M3.327 8.689L2.914 8.991 2.97 8.483 2.502 8.277 2.97 8.071 2.914 7.563 3.327 7.864 3.739 7.563 3.684 8.071 4.152 8.277 3.684 8.483 3.739 8.991z" mask="url(#prefix__m)" transform="rotate(30 3.327 8.277)"/>
                            <path fill="#FFF" d="M6.627 2.089L6.214 2.391 6.27 1.883 5.802 1.677 6.27 1.471 6.214 0.963 6.627 1.264 7.039 0.963 6.984 1.471 7.452 1.677 6.984 1.883 7.039 2.391z" mask="url(#prefix__m)" transform="rotate(30 6.627 1.677)"/>
                            <path fill="#FFF" d="M6.627 5.389L6.214 5.691 6.27 5.183 5.802 4.977 6.27 4.771 6.214 4.263 6.627 4.564 7.039 4.263 6.984 4.771 7.452 4.977 6.984 5.183 7.039 5.691z" mask="url(#prefix__m)" transform="rotate(30 6.627 4.977)"/>
                            <path fill="#FFF" d="M9.927 5.389L9.514 5.691 9.57 5.183 9.102 4.977 9.57 4.771 9.514 4.263 9.927 4.564 10.339 4.263 10.284 4.771 10.752 4.977 10.284 5.183 10.339 5.691z" mask="url(#prefix__m)" transform="rotate(30 9.927 4.977)"/>
                            <path fill="#FFF" d="M6.627 8.689L6.214 8.991 6.27 8.483 5.802 8.277 6.27 8.071 6.214 7.563 6.627 7.864 7.039 7.563 6.984 8.071 7.452 8.277 6.984 8.483 7.039 8.991z" mask="url(#prefix__m)" transform="rotate(30 6.627 8.277)"/>
                            <path fill="#FFF" d="M9.927 2.089L9.514 2.391 9.57 1.883 9.102 1.677 9.57 1.471 9.514 0.963 9.927 1.264 10.339 0.963 10.284 1.471 10.752 1.677 10.284 1.883 10.339 2.391z" mask="url(#prefix__m)" transform="rotate(30 9.927 1.677)"/>
                            <path fill="#FFF" d="M9.927 8.689L9.514 8.991 9.57 8.483 9.102 8.277 9.57 8.071 9.514 7.563 9.927 7.864 10.339 7.563 10.284 8.071 10.752 8.277 10.284 8.483 10.339 8.991z" mask="url(#prefix__m)" transform="rotate(30 9.927 8.277)"/>
                            <path fill="#FFF" d="M1.677 3.739L1.264 4.041 1.32 3.533 0.852 3.327 1.32 3.121 1.264 2.612 1.677 2.914 2.089 2.612 2.034 3.121 2.502 3.327 2.034 3.533 2.089 4.041z" mask="url(#prefix__m)" transform="rotate(30 1.677 3.327)"/>
                            <path fill="#FFF" d="M1.677 7.039L1.264 7.341 1.32 6.833 0.852 6.627 1.32 6.421 1.264 5.912 1.677 6.214 2.089 5.912 2.034 6.421 2.502 6.627 2.034 6.833 2.089 7.341z" mask="url(#prefix__m)" transform="rotate(30 1.677 6.627)"/>
                            <path fill="#FFF" d="M4.977 3.739L4.564 4.041 4.62 3.533 4.152 3.327 4.62 3.121 4.564 2.612 4.977 2.914 5.389 2.612 5.334 3.121 5.802 3.327 5.334 3.533 5.389 4.041z" mask="url(#prefix__m)" transform="rotate(30 4.977 3.327)"/>
                            <path fill="#FFF" d="M8.277 3.739L7.864 4.041 7.92 3.533 7.452 3.327 7.92 3.121 7.864 2.612 8.277 2.914 8.689 2.612 8.634 3.121 9.102 3.327 8.634 3.533 8.689 4.041z" mask="url(#prefix__m)" transform="rotate(30 8.277 3.327)"/>
                            <path fill="#FFF" d="M4.977 7.039L4.564 7.341 4.62 6.833 4.152 6.627 4.62 6.421 4.564 5.912 4.977 6.214 5.389 5.912 5.334 6.421 5.802 6.627 5.334 6.833 5.389 7.341z" mask="url(#prefix__m)" transform="rotate(30 4.977 6.627)"/>
                            <path fill="#FFF" d="M8.277 7.039L7.864 7.341 7.92 6.833 7.452 6.627 7.92 6.421 7.864 5.912 8.277 6.214 8.689 5.912 8.634 6.421 9.102 6.627 8.634 6.833 8.689 7.341z" mask="url(#prefix__m)" transform="rotate(30 8.277 6.627)"/>
                            <g transform="translate(9 11)">
                                <use fill="#000" filter="url(#prefix__n)" xlink:href="#prefix__o"/>
                                <use fill="url(#prefix__p)" xlink:href="#prefix__o"/>
                                <path fill="#FFF" fill-rule="nonzero" d="M7.228 11.088c.548 0 1.022-.095 1.424-.286.401-.19.708-.464.92-.822.213-.357.319-.773.319-1.248V4.575H8.533V8.5c0 .498-.1.863-.301 1.096-.2.233-.524.35-.969.35-.46 0-.79-.116-.989-.348-.199-.231-.299-.595-.299-1.09V4.575H4.618v4.14c0 .735.228 1.315.685 1.738.457.423 1.099.635 1.925.635zm5.435 0c.744 0 1.325-.167 1.742-.501.418-.334.627-.791.627-1.371 0-.42-.112-.773-.334-1.061-.223-.289-.635-.577-1.235-.864-.454-.217-.742-.367-.864-.45-.121-.084-.21-.17-.266-.26-.055-.09-.083-.194-.083-.314 0-.193.069-.35.206-.47.138-.12.336-.18.594-.18.217 0 .437.028.661.083.224.056.508.154.85.295l.44-1.06c-.331-.143-.648-.254-.951-.333-.304-.08-.622-.12-.956-.12-.68 0-1.212.164-1.598.489-.385.325-.578.772-.578 1.34 0 .302.059.565.176.791.117.226.274.423.47.593.197.17.491.347.884.532.419.2.696.344.832.435.137.09.24.185.31.284.07.098.106.21.106.336 0 .225-.08.395-.24.51-.16.114-.389.17-.687.17-.25 0-.524-.039-.824-.118-.3-.079-.668-.215-1.101-.408V10.7c.527.258 1.133.387 1.819.387zM16.63 11l.466-1.53h2.343l.465 1.53h1.468l-2.276-6.451H17.43L15.163 11h1.467zm2.483-2.672H17.44c.457-1.48.734-2.407.83-2.782.024.106.063.25.117.431.054.182.297.965.727 2.351z"/>
                            </g>
                        </g>
                    </g>
                    <g fill="#323232" fill-rule="nonzero" mask="url(#prefix__k)">
                        <path d="M68.151 47v-4.703c0-.57-.043-1.522-.13-2.858h.062L72.431 47h2.693v-9.994h-1.907v4.73c0 .538.034 1.456.102 2.755h-.048l-4.34-7.485h-2.673V47h1.893zm11.528.137c1.158 0 2.062-.26 2.71-.78.65-.52.975-1.23.975-2.132 0-.652-.173-1.202-.52-1.651-.346-.45-.986-.897-1.92-1.344-.707-.337-1.155-.57-1.344-.7-.189-.13-.327-.265-.413-.404-.087-.139-.13-.301-.13-.488 0-.301.107-.545.321-.732.214-.187.522-.28.923-.28.337 0 .68.043 1.029.13.348.086.79.24 1.323.458l.683-1.648c-.515-.223-1.008-.396-1.48-.52-.471-.122-.967-.184-1.487-.184-1.057 0-1.885.253-2.484.76-.6.505-.9 1.2-.9 2.084 0 .47.092.88.274 1.23.182.351.426.66.732.923.305.265.763.54 1.374.828.651.31 1.083.535 1.295.676.212.142.372.289.482.441.11.153.164.327.164.523 0 .351-.124.615-.373.793-.248.178-.605.267-1.07.267-.387 0-.814-.062-1.281-.185-.467-.123-1.038-.335-1.713-.636v1.97c.82.4 1.764.6 2.83.6zM87.831 47c1.768 0 3.12-.438 4.057-1.313.936-.874 1.405-2.135 1.405-3.78 0-1.545-.452-2.748-1.354-3.61-.902-.86-2.17-1.291-3.8-1.291H85V47h2.83zm.198-1.75h-.91v-6.508h1.129c1.895 0 2.843 1.073 2.843 3.22 0 2.192-1.02 3.288-3.062 3.288zm16.176 4.129l-2.406-2.687c.807-.369 1.419-.951 1.836-1.746.417-.795.625-1.781.625-2.957 0-1.659-.407-2.93-1.22-3.814-.814-.884-1.988-1.326-3.524-1.326s-2.715.438-3.538 1.316c-.822.877-1.233 2.147-1.233 3.81 0 1.664.41 2.94 1.23 3.829.82.888 1.996 1.333 3.527 1.333h.158l1.832 2.242h2.713zm-4.703-4.02c-.843 0-1.476-.282-1.9-.847-.424-.565-.636-1.406-.636-2.523 0-1.116.214-1.958.643-2.526.428-.567 1.064-.85 1.907-.85 1.682 0 2.522 1.125 2.522 3.376 0 2.247-.845 3.37-2.536 3.37zM110.682 47v-9.994h-1.736l-3.22 2.563 1.018 1.272 1.149-.923c.136-.11.38-.34.731-.69l-.034 1.039-.02.95V47h2.112zm6.025.137c1.19 0 2.07-.42 2.642-1.258.572-.839.858-2.13.858-3.876 0-1.686-.295-2.967-.885-3.842-.59-.875-1.462-1.312-2.615-1.312-1.185 0-2.062.418-2.632 1.254-.57.836-.854 2.136-.854 3.9 0 1.69.293 2.969.878 3.835.586.866 1.455 1.299 2.608 1.299zm0-1.702c-.501 0-.858-.266-1.07-.797-.212-.53-.318-1.41-.318-2.635 0-1.226.107-2.107.322-2.642.214-.536.57-.803 1.066-.803.488 0 .842.267 1.063.803.221.535.332 1.416.332 2.642 0 1.212-.11 2.087-.329 2.625-.218.538-.574.807-1.066.807zm7.816 1.702c1.19 0 2.07-.42 2.642-1.258.572-.839.858-2.13.858-3.876 0-1.686-.295-2.967-.885-3.842-.59-.875-1.462-1.312-2.615-1.312-1.185 0-2.062.418-2.632 1.254-.57.836-.854 2.136-.854 3.9 0 1.69.293 2.969.878 3.835.586.866 1.455 1.299 2.608 1.299zm0-1.702c-.501 0-.858-.266-1.07-.797-.211-.53-.317-1.41-.317-2.635 0-1.226.107-2.107.32-2.642.215-.536.57-.803 1.067-.803.488 0 .842.267 1.063.803.221.535.332 1.416.332 2.642 0 1.212-.11 2.087-.328 2.625-.22.538-.575.807-1.067.807z"/>
                    </g>
                </g>
                <g>
                    <path fill="#F6FCEE" fill-opacity=".5" d="M6.525 27.5L16.122 22.167 30.518 22.167 35.317 28.833 43.715 28.833 56.911 23.5 67.708 27.5 76.106 20.833 91.702 15.5 98.9 10.167 115.696 7.5 121.694 11.5 131.292 15.5 143.288 10.167 154.086 10.833 158.884 10.833 169.681 0.833 186.477 7.5 192.475 0.833 192.475 53.596 6.525 53.596z" transform="translate(99 16) translate(18.5 69.5)"/>
                    <path stroke="#6BAD10" stroke-linecap="round" stroke-linejoin="round" stroke-width=".5" d="M6.525 28.452L16.122 22.929 30.518 22.929 35.317 29.833 43.715 29.833 56.911 24.31 67.708 28.452 76.106 21.548 91.702 16.024 98.9 10.5 115.696 7.738 121.694 11.881 131.292 16.024 143.288 10.5 154.086 11.19 158.884 11.19 169.681 0.833 186.477 7.738 192.475 0.833" transform="translate(99 16) translate(18.5 69.5)"/>
                    <path fill="url(#prefix__q)" d="M83.792 -61.612L115.208 -61.612 115.208 137.388 83.792 137.388z" transform="translate(99 16) translate(18.5 69.5) rotate(-90 99.5 37.888)"/>
                </g>
                <g transform="translate(99 16) translate(22 119)">
                    <mask id="prefix__s" fill="#fff">
                        <use xlink:href="#prefix__r"/>
                    </mask>
                    <rect width="89.5" height="59.5" x=".25" y=".25" stroke="#777" stroke-opacity=".5" stroke-width=".5" rx="3"/>
                    <path fill="#1A2D3D" fill-opacity=".9" d="M0 0H90V24H0z" mask="url(#prefix__s)"/>
                    <path fill="#FFF" fill-rule="nonzero" d="M13.283 17c.969 0 1.736-.219 2.3-.656.564-.438.847-1.047.847-1.828 0-.551-.12-.993-.36-1.325-.24-.332-.633-.558-1.175-.68v-.058c.398-.066.717-.264.958-.592.24-.328.36-.748.36-1.26 0-.753-.275-1.303-.823-1.649-.55-.346-1.431-.518-2.646-.518h-2.666V17h3.205zm-.334-5.174h-1.054V9.922h.955c.52 0 .899.071 1.14.214.24.142.36.378.36.706 0 .351-.11.603-.331.756-.221.152-.578.228-1.07.228zm.13 3.674h-1.184v-2.232h1.125c1.015 0 1.523.355 1.523 1.066 0 .395-.12.687-.357.879-.239.191-.608.287-1.108.287zm8.334 1.617c.73 0 1.363-.127 1.898-.38.535-.255.944-.62 1.227-1.096.284-.477.425-1.032.425-1.664V8.434h-1.81v5.232c0 .664-.134 1.151-.402 1.462-.267.31-.698.466-1.292.466-.613 0-1.052-.155-1.318-.463-.266-.309-.398-.793-.398-1.453V8.434h-1.811v5.52c0 .98.305 1.752.914 2.317.61.564 1.465.846 2.567.846zM30.479 17v-3.334l2.842-5.232h-1.957l-1.787 3.527-1.775-3.527h-1.97l2.843 5.29V17h1.804z" mask="url(#prefix__s)"/>
                </g>
                <g transform="translate(99 16) translate(122 119)">
                    <mask id="prefix__u" fill="#fff">
                        <use xlink:href="#prefix__t"/>
                    </mask>
                    <rect width="89.5" height="59.5" x=".25" y=".25" stroke="#777" stroke-opacity=".5" stroke-width=".5" rx="3"/>
                    <path fill="#1A2D3D" fill-opacity=".9" d="M0 0H90V24H0z" mask="url(#prefix__u)"/>
                    <path fill="#FFF" fill-rule="nonzero" d="M11.977 17.117c.992 0 1.766-.222 2.323-.668.556-.445.835-1.054.835-1.828 0-.559-.149-1.03-.446-1.415-.296-.385-.845-.768-1.646-1.151-.605-.29-.99-.49-1.151-.6-.163-.112-.28-.227-.355-.347-.074-.119-.111-.258-.111-.419 0-.257.092-.466.275-.627.184-.16.447-.24.791-.24.29 0 .583.037.882.112.299.074.677.205 1.134.392l.586-1.412c-.442-.191-.865-.34-1.269-.445-.404-.106-.829-.158-1.274-.158-.906 0-1.616.216-2.13.65-.514.434-.77 1.03-.77 1.787 0 .402.078.754.234 1.055.156.3.365.564.627.79.261.227.654.464 1.177.71.559.265.93.459 1.11.58.182.12.32.247.414.378.094.13.14.28.14.448 0 .3-.106.527-.319.68-.213.152-.518.228-.917.228-.332 0-.698-.053-1.098-.158-.4-.105-.89-.287-1.468-.545v1.688c.703.343 1.511.515 2.426.515zM21.47 17v-1.5h-3.117v-2.209h2.9v-1.488h-2.9V9.922h3.117V8.434h-4.933V17h4.933zm6.928 0v-1.5h-3.474V8.434h-1.817V17H28.4zm6.63 0v-1.5h-3.475V8.434h-1.816V17h5.29z" mask="url(#prefix__u)"/>
                </g>
                <path fill="url(#prefix__v)" d="M194.5 151c4.142 0 7.5 3.358 7.5 7.5 0 4.142-3.358 7.5-7.5 7.5h-14c-4.142 0-7.5-3.358-7.5-7.5 0-4.142 3.358-7.5 7.5-7.5h14zM167 161c1.105 0 2 .895 2 2s-.895 2-2 2h-24c-1.105 0-2-.895-2-2s.895-2 2-2h24zM93.5 151c4.142 0 7.5 3.358 7.5 7.5 0 4.142-3.358 7.5-7.5 7.5h-14c-4.142 0-7.5-3.358-7.5-7.5 0-4.142 3.358-7.5 7.5-7.5h14zM66 161c1.105 0 2 .895 2 2s-.895 2-2 2H42c-1.105 0-2-.895-2-2s.895-2 2-2h24z" transform="translate(99 16)"/>
            </g>
        </g>
    </g>
</svg>
