<?xml version="1.0" encoding="UTF-8"?>
<svg width="50px" height="51px" viewBox="0 0 50 51" version="1.1" xmlns="http://www.w3.org/2000/svg" xmlns:xlink="http://www.w3.org/1999/xlink">
    <!-- Generator: sketchtool 56.3 (101010) - https://sketch.com -->
    <title>5BC45BE1-B620-434A-AAA1-07B5243DAEA3</title>
    <desc>Created with sketchtool.</desc>
    <g id="SignIn/SignUp" stroke="none" stroke-width="1" fill="none" fill-rule="evenodd" stroke-linejoin="round">
        <g id="Sign-Up-Desktop---B" transform="translate(-499.000000, -525.000000)" stroke="#777777" stroke-width="0.9375">
            <g id="Group-39" transform="translate(500.000000, 526.000000)">
                <path d="M46.8159283,44.1349231 C43.024739,45.7849231 34.4890585,49.4010769 34.4890585,49.4010769 L34.4678559,0.288769231 C34.4678559,0.288769231 43.2139315,4.968 45.1352139,5.88107692 C46.048557,6.31415385 48.1068409,7.43646154 48.1068409,8.94261538 L48.4468981,41.058 C48.3955226,43.1733846 47.7439502,43.7310769 46.8159283,44.1349231 Z" id="Stroke-1"></path>
                <path d="M2.60058137,45.1910769 C3.49353734,45.4164615 34.4477134,49.3910769 34.4477134,49.3910769 L34.4477134,0.288769231 C34.4477134,0.288769231 9.35361187,3.27184615 2.33065586,4.47569231 C1.87072237,4.55492308 0.491737398,4.67492308 0.491737398,7.008 C0.491737398,15.2072308 0.30580684,37.3987692 0.30580684,43.1741538 C0.30580684,44.4872308 1.46787283,44.9049231 2.60058137,45.1910769 Z" id="Stroke-3"></path>
                <path d="M27.7497354,43.75 L4.94281366,40.6879328 C4.27072421,40.5185567 3.76923077,40.1959023 3.76923077,39.589788 L4.14718917,10.1715458 C4.14718917,9.56543142 4.69794956,9.17908602 5.36783303,9.05590343 L27.5056066,6.25 C28.1541656,6.25 28.6799248,6.74203046 28.6799248,7.3481448 L28.9240536,42.6518552 C28.9240536,43.2579695 28.3982944,43.75 27.7497354,43.75 Z" id="Stroke-5"></path>
                <g id="Group-15" transform="translate(6.282051, 15.000000)">
                    <path d="M7.35864321,6.90887179 C7.35864321,6.90887179 8.79652432,7.00340171 9.44410995,7.05844444 C9.73714086,7.08357265 11.7477642,7.51852991 11.6354991,10.0869915 C11.5257711,12.5926325 9.74792338,12.7308376 9.34072458,12.7673333 C8.64874034,12.8289573 7.12079345,12.7422051 7.12079345,12.7422051" id="Stroke-15" stroke-linecap="round"></path>
                    <path d="M9.33514304,9.81734188 C9.33514304,11.4237521 8.34251669,12.7256325 7.11774897,12.7256325 C5.89361552,12.7256325 4.90098917,11.4237521 4.90098917,9.81734188 C4.90098917,8.21093162 5.89361552,6.90905128 7.11774897,6.90905128 C7.37526098,6.90905128 7.62135621,6.96588889 7.85096051,7.07178632 C8.71546512,7.46845299 9.33514304,8.54836752 9.33514304,9.81734188 Z" id="Stroke-19"></path>
                    <path d="M14.4966098,15.1131709 L12.4631529,13.8782991" id="Stroke-21" stroke-linecap="round"></path>
                    <path d="M16.4929621,10.3647778 L13.5670929,10.3145214" id="Stroke-23" stroke-linecap="round"></path>
                    <path d="M9.41379203,3.47917094 L9.41379203,5.08857265" id="Stroke-25" stroke-linecap="round"></path>
                    <path d="M14.5548354,5.68829915 L12.463026,6.75146154" id="Stroke-27" stroke-linecap="round"></path>
                    <path d="M9.41379203,17.2509829 L9.41379203,15.4932051" id="Stroke-29" stroke-linecap="round"></path>
                    <path d="M4.38647256,14.8759487 L5.78058931,14.0203932" id="Stroke-31" stroke-linecap="round"></path>
                    <path d="M4.50260667,5.70642735 L5.37408821,6.276" id="Stroke-33" stroke-linecap="round"></path>
                    <path d="M2.5849033,10.077359 L4.18705932,10.0498376" id="Stroke-35" stroke-linecap="round"></path>
                    <path d="M19.7053854,10.3484444 C19.7053854,15.6647352 15.4127494,19.9751111 10.1172087,19.9751111 C4.82166799,19.9751111 0.529761826,15.6647352 0.529761826,10.3484444 C0.529761826,5.0321537 4.82166799,0.721777778 10.1172087,0.721777778 C15.4127494,0.721777778 19.7053854,5.0321537 19.7053854,10.3484444 Z" id="Stroke-37" stroke-linecap="round"></path>
                </g>
            </g>
        </g>
    </g>
</svg>