<?xml version="1.0" encoding="utf-8"?>
<!-- Generator: Adobe Illustrator 25.2.1, SVG Export Plug-In . SVG Version: 6.00 Build 0)  -->
<svg version="1.1" id="Layer_1" xmlns="http://www.w3.org/2000/svg" xmlns:xlink="http://www.w3.org/1999/xlink" x="0px" y="0px"
	 viewBox="0 0 71 71" style="enable-background:new 0 0 71 71;" xml:space="preserve">
<style type="text/css">
	.st0{fill:url(#SVGID_1_);}
	.st1{fill:url(#SVGID_2_);}
	.st2{fill:url(#SVGID_3_);}
	.st3{fill:url(#SVGID_4_);}
	.st4{fill:url(#SVGID_5_);}
	.st5{fill:url(#SVGID_6_);}
	.st6{fill:url(#SVGID_7_);}
	.st7{fill:url(#SVGID_8_);}
	.st8{fill:url(#SVGID_9_);}
	.st9{fill:url(#SVGID_10_);}
</style>
<g>
	<g>
		<linearGradient id="SVGID_1_" gradientUnits="userSpaceOnUse" x1="-10.557" y1="79.0446" x2="58.6422" y2="14.2043">
			<stop  offset="0" style="stop-color:#96C854"/>
			<stop  offset="0.4883" style="stop-color:#98D268"/>
			<stop  offset="1" style="stop-color:#A5F2B6"/>
		</linearGradient>
		<path class="st0" d="M57.4,11.6L57.4,11.6C57.4,11.6,57.4,11.5,57.4,11.6c-1.3-0.7-2.7-1.1-4.2-1.1c-4.9,0-8.8,4-8.8,8.8
			s4,8.8,8.8,8.8c4.5,0,8.2-3.4,8.8-7.7l0,0l0,0c0.1-0.4,0.1-0.7,0.1-1.1C62,16,60.2,13.1,57.4,11.6z M57.2,15.1
			c1,0.9,1.6,2.2,1.8,3.5l-3.5-0.4L57.2,15.1z M53.2,25.2c-3.2,0-5.9-2.6-5.9-5.9s2.6-5.9,5.9-5.9c0.5,0,1,0.1,1.4,0.2l-2.7,5
			c-0.2,0.4-0.2,1,0,1.4s0.7,0.7,1.1,0.8l5.7,0.7C57.8,23.7,55.7,25.2,53.2,25.2z"/>
		<linearGradient id="SVGID_2_" gradientUnits="userSpaceOnUse" x1="-15.0751" y1="74.2227" x2="54.1241" y2="9.3825">
			<stop  offset="0" style="stop-color:#96C854"/>
			<stop  offset="0.4883" style="stop-color:#98D268"/>
			<stop  offset="1" style="stop-color:#A5F2B6"/>
		</linearGradient>
		<path class="st1" d="M31,20.7c-0.8,0-1.5,0.7-1.5,1.5v17.7c0,0.8,0.7,1.5,1.5,1.5s1.5-0.7,1.5-1.5V22.2
			C32.5,21.4,31.8,20.7,31,20.7z"/>
		<linearGradient id="SVGID_3_" gradientUnits="userSpaceOnUse" x1="-20.4032" y1="68.5365" x2="48.7961" y2="3.6962">
			<stop  offset="0" style="stop-color:#96C854"/>
			<stop  offset="0.4883" style="stop-color:#98D268"/>
			<stop  offset="1" style="stop-color:#A5F2B6"/>
		</linearGradient>
		<path class="st2" d="M13.2,32.6c-0.8,0-1.5,0.7-1.5,1.5V40c0,0.8,0.7,1.5,1.5,1.5s1.5-0.7,1.5-1.5v-5.9
			C14.7,33.2,14,32.6,13.2,32.6z"/>
		<linearGradient id="SVGID_4_" gradientUnits="userSpaceOnUse" x1="-3.1745" y1="86.9234" x2="66.0247" y2="22.0831">
			<stop  offset="0" style="stop-color:#96C854"/>
			<stop  offset="0.4883" style="stop-color:#98D268"/>
			<stop  offset="1" style="stop-color:#A5F2B6"/>
		</linearGradient>
		<path class="st3" d="M60.5,32.6H45.8c-0.8,0-1.5,0.7-1.5,1.5s0.7,1.5,1.5,1.5h14.8c0.8,0,1.5-0.7,1.5-1.5S61.4,32.6,60.5,32.6z"/>
		<linearGradient id="SVGID_5_" gradientUnits="userSpaceOnUse" x1="-0.2308" y1="90.065" x2="68.9685" y2="25.2248">
			<stop  offset="0" style="stop-color:#96C854"/>
			<stop  offset="0.4883" style="stop-color:#98D268"/>
			<stop  offset="1" style="stop-color:#A5F2B6"/>
		</linearGradient>
		<path class="st4" d="M60.5,38.5H45.8c-0.8,0-1.5,0.7-1.5,1.5s0.7,1.5,1.5,1.5h14.8c0.8,0,1.5-0.7,1.5-1.5
			C62,39.2,61.4,38.5,60.5,38.5z"/>
		<linearGradient id="SVGID_6_" gradientUnits="userSpaceOnUse" x1="-16.3117" y1="72.9031" x2="52.8876" y2="8.0628">
			<stop  offset="0" style="stop-color:#96C854"/>
			<stop  offset="0.4883" style="stop-color:#98D268"/>
			<stop  offset="1" style="stop-color:#A5F2B6"/>
		</linearGradient>
		<path class="st5" d="M25.1,26.7c-0.8,0-1.5,0.7-1.5,1.5V40c0,0.8,0.7,1.5,1.5,1.5s1.5-0.7,1.5-1.5V28.2
			C26.5,27.3,25.9,26.7,25.1,26.7z"/>
		<linearGradient id="SVGID_7_" gradientUnits="userSpaceOnUse" x1="-14.4872" y1="74.8502" x2="54.7121" y2="10.0099">
			<stop  offset="0" style="stop-color:#96C854"/>
			<stop  offset="0.4883" style="stop-color:#98D268"/>
			<stop  offset="1" style="stop-color:#A5F2B6"/>
		</linearGradient>
		<path class="st6" d="M36.9,11.9c-0.8,0-1.5,0.7-1.5,1.5V40c0,0.8,0.7,1.5,1.5,1.5s1.5-0.7,1.5-1.5V13.4
			C38.4,12.5,37.7,11.9,36.9,11.9z"/>
		<linearGradient id="SVGID_8_" gradientUnits="userSpaceOnUse" x1="-19.8652" y1="69.1107" x2="49.3341" y2="4.2704">
			<stop  offset="0" style="stop-color:#96C854"/>
			<stop  offset="0.4883" style="stop-color:#98D268"/>
			<stop  offset="1" style="stop-color:#A5F2B6"/>
		</linearGradient>
		<path class="st7" d="M19.1,23.7c-0.8,0-1.5,0.7-1.5,1.5V40c0,0.8,0.7,1.5,1.5,1.5s1.5-0.7,1.5-1.5V25.2
			C20.6,24.3,20,23.7,19.1,23.7z"/>
		<linearGradient id="SVGID_9_" gradientUnits="userSpaceOnUse" x1="5.1187" y1="95.7741" x2="74.318" y2="30.9339">
			<stop  offset="0" style="stop-color:#96C854"/>
			<stop  offset="0.4883" style="stop-color:#98D268"/>
			<stop  offset="1" style="stop-color:#A5F2B6"/>
		</linearGradient>
		<path class="st8" d="M50.3,66.6c-1.6-3.3-3.5-7.5-9.4-7.5H37v-4.4c0-0.8-0.7-1.5-1.5-1.5S34,53.9,34,54.7v4.4h-3.8
			c-5.8,0-7.8,4.1-9.4,7.3l-0.6,1.1C20,67.8,20,68.1,20,68.3c0,1.4,1.3,2.6,2.8,2.6h25.4c1.5,0,2.8-1.1,2.8-2.5
			c0-0.2-0.1-0.4-0.2-0.7L50.3,66.6z M23.3,68.1l0.1-0.2c1.5-3.1,2.8-5.7,6.7-5.7h10.8c4,0,5.3,2.6,6.7,5.8l0.1,0.2L23.3,68.1
			L23.3,68.1z"/>
		<linearGradient id="SVGID_10_" gradientUnits="userSpaceOnUse" x1="-15.836" y1="73.4107" x2="53.3632" y2="8.5704">
			<stop  offset="0" style="stop-color:#96C854"/>
			<stop  offset="0.4883" style="stop-color:#98D268"/>
			<stop  offset="1" style="stop-color:#A5F2B6"/>
		</linearGradient>
		<path class="st9" d="M64.7,0H6.2C2.8,0,0,2.9,0,6.5v37.8c0,3.5,2.6,6,6.2,6h58.6c3.6,0,6.3-2.5,6.3-6V6.5C71,2.9,68.2,0,64.7,0z
			 M68.1,44.3c0,1.8-1.3,3.1-3.2,3.1H6.2c-1.9,0-3.2-1.2-3.2-3.1V6.5C2.9,4.6,4.4,3,6.2,3h58.6C66.6,3,68,4.6,68,6.5L68.1,44.3z"/>
	</g>
</g>
</svg>
