<?xml version="1.0" encoding="utf-8"?>
<!-- Generator: Adobe Illustrator 23.0.3, SVG Export Plug-In . SVG Version: 6.00 Build 0)  -->
<svg version="1.1" id="Layer_1" xmlns="http://www.w3.org/2000/svg" xmlns:xlink="http://www.w3.org/1999/xlink" x="0px" y="0px"
	 viewBox="0 0 75 75" style="enable-background:new 0 0 75 75;" xml:space="preserve">
<style type="text/css">
	.st0{fill:none;stroke:#BCBCBC;stroke-miterlimit:10;}
	.st1{fill:none;stroke:#BCBCBC;stroke-linecap:round;stroke-miterlimit:10;}
	.st2{fill:#BCBCBC;}
	.st3{font-family:'DINOT-Light';}
	.st4{font-size:26px;}
	.st5{fill:none;stroke:#BCBCBC;stroke-linecap:round;stroke-linejoin:round;stroke-miterlimit:10;}
</style>
<g>
	<path class="st0" d="M14.24,27.44c3.19-3.1,13.04-0.22,20.77,7.73c7.74,7.95,10.43,17.95,7.24,21.06
		c-3.19,3.1-12.05-0.82-19.78-8.77S11.05,30.55,14.24,27.44z"/>
	<path class="st0" d="M41.99,56.41l-4.54,4.54c-3.09,3.01-12.36-0.55-20.16-8.43c-9.41-9.51-9.96-17.71-7.9-19.73l4.58-5.16"/>
	<path class="st1" d="M34.8,56.42c0,0-0.67,1.06-2.04,2.43c-1.41,1.41-2.5,2.34-2.5,2.34"/>
	<path class="st1" d="M29.96,54.11c0,0-0.67,1.06-2.04,2.43c-1.41,1.41-2.73,2.32-2.73,2.32"/>
	<path class="st0" d="M8.72,38.51c0,0,1.14-1.1,2.61-2.36c1.51-1.29,2.49-1.77,2.49-1.77"/>
	<text transform="matrix(1 0 0 1 48.6362 32)" class="st2 st3 st4">5</text>
	<text transform="matrix(1 0 0 1 36.04 32)" class="st2 st3 st4">x</text>
	<path class="st5" d="M26.5,34.85c-1.58-0.74-4.45-0.15-3.05,2.8c0.96,2.01,3.58,2.96,6.68,2.91c1.73-0.02,3.32,0.33,4.24,1.19
		c1.03,0.97,1.59,2.35,1.34,3.36c-0.25,1.02-1.17,1.63-2.29,1.76c-1.01,0.11-2.22-0.16-3.26-0.89"/>
	<line class="st5" x1="34.91" y1="46.57" x2="37.15" y2="49.18"/>
	<line class="st5" x1="21.13" y1="31.95" x2="23.37" y2="34.56"/>
</g>
</svg>
