<?xml version="1.0" encoding="utf-8"?>
<!-- Generator: Adobe Illustrator 23.0.3, SVG Export Plug-In . SVG Version: 6.00 Build 0)  -->
<svg version="1.1" id="Layer_1" xmlns="http://www.w3.org/2000/svg" xmlns:xlink="http://www.w3.org/1999/xlink" x="0px" y="0px"
	 viewBox="0 0 150 150" style="enable-background:new 0 0 150 150;" xml:space="preserve">
<style type="text/css">
	.st0{fill:none;stroke:#6AAC0E;stroke-linecap:round;stroke-linejoin:round;stroke-miterlimit:10;}
	.st1{fill:none;stroke:#6AAC0E;stroke-linejoin:round;stroke-miterlimit:10;}
	.st2{clip-path:url(#SVGID_2_);}
	.st3{clip-path:url(#SVGID_4_);fill:#FFFFFF;}
	.st4{clip-path:url(#SVGID_6_);}
	.st5{clip-path:url(#SVGID_8_);fill:#FFFFFF;}
	.st6{fill:none;stroke:#6AAC0E;stroke-miterlimit:10;}
	.st7{fill:none;stroke:#6AAC0E;stroke-linecap:round;stroke-miterlimit:10;stroke-dasharray:4,4;}
	.st8{clip-path:url(#SVGID_10_);}
	.st9{clip-path:url(#SVGID_12_);fill:#6AAC0E;}
</style>
<g>
	<path class="st0" d="M26.85,101.66V25.2c0-3.87,3.13-7,7-7h95.65c3.87,0,7,3.13,7,7v76.46c0,3.87-3.13,7-7,7H33.85
		C29.98,108.66,26.85,105.52,26.85,101.66z"/>
	<rect x="58.48" y="66.87" class="st1" width="8.97" height="17.31"/>
	<rect x="85.03" y="72.11" class="st1" width="8.97" height="12"/>
	<rect x="71.93" y="51" class="st1" width="8.97" height="33.18"/>
	<rect x="98.38" y="53.89" class="st1" width="8.97" height="30.3"/>
	<rect x="111.83" y="43.79" class="st1" width="8.97" height="40.4"/>
</g>
<g>
	<defs>
		<path id="SVGID_1_" d="M49.35,137.2c22.37,0,40.17-15.87,40.17-39.34c0-11.79-3.36-24.02-10.67-32.09
			c-7.24-8-18.37-11.88-29.5-11.88c-22.37,0-40.5,17.34-40.5,40.81S26.98,137.2,49.35,137.2z"/>
	</defs>
	<clipPath id="SVGID_2_">
		<use xlink:href="#SVGID_1_"  style="overflow:visible;"/>
	</clipPath>
	<g class="st2">
		<defs>
			<rect id="SVGID_3_" x="-5.15" y="5.2" width="150" height="150"/>
		</defs>
		<clipPath id="SVGID_4_">
			<use xlink:href="#SVGID_3_"  style="overflow:visible;"/>
		</clipPath>
		<rect x="3.85" y="48.89" class="st3" width="90.67" height="93.31"/>
	</g>
</g>
<g>
	<defs>
		<circle id="SVGID_5_" cx="112.85" cy="108.2" r="3"/>
	</defs>
	<clipPath id="SVGID_6_">
		<use xlink:href="#SVGID_5_"  style="overflow:visible;"/>
	</clipPath>
	<g class="st4">
		<defs>
			<rect id="SVGID_7_" x="-5.15" y="5.2" width="150" height="150"/>
		</defs>
		<clipPath id="SVGID_8_">
			<use xlink:href="#SVGID_7_"  style="overflow:visible;"/>
		</clipPath>
		<rect x="104.85" y="100.2" class="st5" width="16" height="16"/>
	</g>
</g>
<g>
	<path class="st6" d="M79.51,76.76c2.33,4.63,3.46,9.63,3.35,14.88c-0.04,0.58-0.27,1.08-0.67,1.48c-0.42,0.43-0.94,0.63-1.51,0.59
		l-28.8-2.01c-0.28-0.02-0.49-0.26-0.47-0.55l2.06-29.43c0.04-0.59,0.3-1.07,0.78-1.44c0.45-0.35,0.96-0.51,1.51-0.47
		c5.12,0.62,9.81,2.46,13.97,5.46C73.89,68.26,77.18,72.14,79.51,76.76z M84.02,101.88c0.34,0.45,0.49,0.97,0.46,1.51
		c-0.41,3.45-1.39,6.8-2.93,9.98c-1.53,3.18-3.6,6.06-6.14,8.55c-0.46,0.41-0.96,0.62-1.49,0.64c-0.06,0.01-0.13,0.01-0.19,0
		c-0.49-0.03-0.93-0.28-1.29-0.7L53.8,99.95c-0.14-0.16-0.16-0.37-0.07-0.56c0.09-0.18,0.28-0.3,0.49-0.29l28.42,1.99
		C83.19,101.13,83.67,101.4,84.02,101.88z M63.39,122.94c0.47,0.54,0.65,1.18,0.54,1.83c-0.1,0.62-0.36,1.11-0.77,1.48
		c-3.41,2.75-7.2,4.79-11.3,6.08c-4.11,1.3-8.39,1.8-12.71,1.5c-6.25-0.44-12-2.47-17.07-6.04c-5.07-3.56-9.03-8.23-11.78-13.86
		c-2.76-5.62-3.93-11.68-3.49-17.98c0.44-6.29,2.34-12.08,5.65-17.19c3.31-5.1,7.64-9.14,12.86-11.99
		c5.24-2.84,10.93-4.27,16.91-4.25l0.01,0c0.65,0.05,1.2,0.31,1.64,0.78c0.48,0.49,0.69,1.07,0.65,1.73l-2.31,33.01L63.39,122.94z"
		/>
	<path class="st7" d="M89.51,121.2c7.75,1.02,13.86,0.02,18.33-3c4.47-3.02,6.3-10.68,5.5-23"/>
</g>
<g>
	<defs>
		<path id="SVGID_9_" d="M108.97,100.05c-0.08-0.1-0.12-0.2-0.12-0.35c0-0.1,0.04-0.25,0.12-0.35l4.08-4.99
			c0.08-0.1,0.17-0.15,0.29-0.15s0.21,0.05,0.29,0.15l4.08,4.99c0.08,0.1,0.12,0.25,0.12,0.35c0,0.15-0.04,0.25-0.12,0.35
			c-0.17,0.2-0.42,0.2-0.58,0l-3.79-4.64l-3.79,4.64C109.39,100.25,109.14,100.25,108.97,100.05z"/>
	</defs>
	<clipPath id="SVGID_10_">
		<use xlink:href="#SVGID_9_"  style="overflow:visible;"/>
	</clipPath>
	<g class="st8">
		<defs>
			<rect id="SVGID_11_" x="-5.15" y="5.2" width="150" height="150"/>
		</defs>
		<clipPath id="SVGID_12_">
			<use xlink:href="#SVGID_11_"  style="overflow:visible;"/>
		</clipPath>
		<rect x="103.85" y="89.2" class="st9" width="19" height="16"/>
	</g>
</g>
</svg>
