<?xml version="1.0" encoding="utf-8"?>
<!-- Generator: Adobe Illustrator 23.0.3, SVG Export Plug-In . SVG Version: 6.00 Build 0)  -->
<svg version="1.1" id="Layer_1" xmlns="http://www.w3.org/2000/svg" xmlns:xlink="http://www.w3.org/1999/xlink" x="0px" y="0px"
	 viewBox="0 0 150 150" style="enable-background:new 0 0 150 150;" xml:space="preserve">
<style type="text/css">
	.st0{fill:#FFFFFF;stroke:#6AAC0E;stroke-linejoin:round;stroke-miterlimit:10;}
	.st1{fill:#FFFFFF;stroke:#6AAC0E;stroke-miterlimit:10;}
	.st2{fill:#FFFFFF;}
	.st3{fill:none;stroke:#6AAC0E;stroke-width:0.75;stroke-linecap:round;stroke-linejoin:round;}
</style>
<g>
	<path class="st0" d="M32.26,102.94c-1.41,0-2.57-1.16-2.57-2.57V40.38c0-1.41,1.16-2.57,2.57-2.57h90.01
		c1.41,0,2.57,1.16,2.57,2.57v59.98c0,1.41-1.16,2.57-2.57,2.57H32.26z"/>
	<path class="st1" d="M139.96,100.78H14.45c0,0,0,1.59,0,1.98c0,0.29,0.24,0.84,0.68,1.08c0.7,0.65,2.75,2.34,5.22,2.34
		c1.27,0,52.59,0,69.87,0c3.5,0,5.61,0,5.61,0c11.57,0,37.11,0,38.29,0c3.09,0,5.66-2.61,5.66-2.61c0.19-0.24,0.17-0.58,0.17-0.77
		C139.96,102.44,139.96,100.78,139.96,100.78z"/>
	<rect x="33.68" y="41.81" class="st1" width="87.27" height="55.3"/>
</g>
<circle class="st2" cx="90.81" cy="92.04" r="26.41"/>
<path class="st3" d="M85.22,110.8c0,0-12.42-11.75-15.44-18.72c-0.83-1.9-0.95-3.44,0.08-4.3c1.48-1.25,3.22-1.03,5.06,0.5
	c2.5,2.3,4.73,4.87,6.67,7.65c0,0-4.58-22.27-5.17-26.65c-0.59-4.38,0.79-4.78,2.38-5.17c1.59-0.4,3.29,0.65,3.98,3.51
	c0.88,3.72,3.98,18.99,3.98,18.99s-1.49-6.69-1.35-10.54c0.05-1.24,0.93-2.3,2.14-2.57c1.92-0.3,3.35,0.18,3.83,1.85
	c0.74,2.57,2.09,10.35,2.09,10.35s-0.54-6.4-0.6-8.44c-0.22-1.48,0.76-2.87,2.22-3.16c1.56-0.28,3.07,0.66,3.51,2.18
	c0.68,2.72,1.17,5.48,1.47,8.26c0,0-0.24-5.16,0.56-7.15c0.41-1.04,1.76-1.28,3.16-0.88c0.59,0.23,1.09,0.66,1.41,1.2
	c3.37,4.88,4.49,22.35,3.96,26.94"/>
<path class="st3" d="M111.31,67.42c0,0-11.27-9.29-30.96-12.07"/>
<polyline class="st3" points="83.34,59.91 79.73,55.3 85.06,52.33 "/>
</svg>
