<?xml version="1.0" encoding="utf-8"?>
<!-- Generator: Adobe Illustrator 23.0.3, SVG Export Plug-In . SVG Version: 6.00 Build 0)  -->
<svg version="1.1" id="Layer_1" xmlns="http://www.w3.org/2000/svg" xmlns:xlink="http://www.w3.org/1999/xlink" x="0px" y="0px"
	 viewBox="0 0 150 150" style="enable-background:new 0 0 150 150;" xml:space="preserve">
<style type="text/css">
	.st0{clip-path:url(#SVGID_2_);fill:none;stroke:#6AAC0E;stroke-linecap:round;stroke-linejoin:round;stroke-miterlimit:10;}
	
		.st1{clip-path:url(#SVGID_2_);fill:none;stroke:#6AAC0E;stroke-width:0.95;stroke-linecap:round;stroke-linejoin:round;stroke-miterlimit:10;}
</style>
<g>
	<defs>
		<rect id="SVGID_1_" y="-1.5" width="150" height="150"/>
	</defs>
	<clipPath id="SVGID_2_">
		<use xlink:href="#SVGID_1_"  style="overflow:visible;"/>
	</clipPath>
	<path class="st0" d="M60.13,62.26v27.33c0,2.01,1.63,3.64,3.64,3.64h47.31c2.01,0,3.64-1.63,3.64-3.64V42.28
		c0-2.01-1.63-3.64-3.64-3.64H82.35h-9.31"/>
	<path class="st0" d="M26.56,55.38h36.52c1.55,0,2.81-1.26,2.81-2.81V16.05c0-1.55-1.26-2.81-2.81-2.81H26.56
		c-1.55,0-2.81,1.26-2.81,2.81v36.51C23.75,54.12,25.01,55.38,26.56,55.38z"/>
	<path class="st0" d="M101.1,98.43v19.78c0,1.45,1.18,2.63,2.63,2.63h34.23c1.46,0,2.63-1.18,2.63-2.63V83.97
		c0-1.45-1.18-2.63-2.63-2.63h-17.68"/>
	<path class="st0" d="M122.54,113.3v-10.89h3.65l0.55-4.24h-4.2v-2.71c0-1.23,0.34-2.07,2.1-2.07h2.24v-3.8
		c-0.39-0.05-1.72-0.17-3.27-0.17c-3.24,0-5.46,1.98-5.46,5.61v3.13h-3.66v4.24h3.66v10.89H122.54z"/>
	<path class="st0" d="M104.82,55.87c-1.22,0.54-2.53,0.91-3.9,1.07c1.4-0.84,2.48-2.18,2.99-3.76c-1.31,0.78-2.77,1.34-4.31,1.65
		c-1.24-1.32-3.01-2.15-4.96-2.15c-3.75,0-6.8,3.04-6.8,6.8c0,0.53,0.06,1.05,0.18,1.55c-5.65-0.28-10.66-2.99-14.01-7.1
		c-0.59,1-0.92,2.17-0.92,3.42c0,2.36,1.2,4.44,3.02,5.66c-1.11-0.04-2.16-0.34-3.08-0.85v0.09c0,3.29,2.34,6.04,5.45,6.66
		c-0.57,0.16-1.17,0.24-1.79,0.24c-0.44,0-0.86-0.04-1.28-0.12c0.87,2.7,3.38,4.66,6.35,4.72c-2.33,1.82-5.26,2.91-8.44,2.91
		c-0.55,0-1.09-0.03-1.62-0.1c3.01,1.93,6.58,3.05,10.42,3.05c12.5,0,19.34-10.35,19.34-19.33c0-0.29-0.01-0.59-0.02-0.88
		C102.76,58.43,103.92,57.23,104.82,55.87z"/>
	<path class="st0" d="M54.84,69.81H13.17c-2.45,0-4.43,1.98-4.43,4.43v57.56c0,2.45,1.98,4.43,4.43,4.43h57.56
		c2.45,0,4.43-1.98,4.43-4.43v-31.25"/>
	<path class="st0" d="M51.49,102.72c-0.04-4.43,3.61-6.55,3.77-6.65c-2.05-3-5.25-3.42-6.39-3.46c-2.72-0.27-5.31,1.6-6.69,1.6
		c-1.38,0-3.51-1.56-5.77-1.52c-2.96,0.04-5.7,1.72-7.23,4.38c-3.08,5.35-0.79,13.27,2.21,17.61c1.47,2.12,3.22,4.51,5.52,4.42
		c2.21-0.09,3.05-1.43,5.72-1.43c2.68,0,3.43,1.43,5.77,1.39c2.38-0.04,3.89-2.16,5.35-4.29c1.69-2.46,2.38-4.85,2.42-4.97
		C56.12,109.77,51.54,108.01,51.49,102.72z M47.09,89.73c1.22-1.48,2.05-3.53,1.82-5.58c-1.75,0.07-3.89,1.17-5.15,2.65
		c-1.13,1.31-2.12,3.4-1.86,5.41C43.87,92.36,45.86,91.21,47.09,89.73z"/>
	<line class="st1" x1="41.58" y1="22.5" x2="41.58" y2="46.5"/>
	<path class="st1" d="M38,25.85c0,0,0.68-0.36,3.69-0.35c4.01,0.02,8.19,0.68,8.31,3.78c0.05,1.35-0.32,2.31-1.54,2.97
		c-2.57,1.39-6.65,1.51-6.65,1.51s9.85-0.41,9.69,4.98C51.35,44.07,38,42.17,38,42.17"/>
	<line class="st1" x1="45.52" y1="22.5" x2="45.48" y2="25.5"/>
	<line class="st1" x1="45.49" y1="42.5" x2="45.51" y2="46.5"/>
</g>
</svg>
