<?xml version="1.0" encoding="utf-8"?>
<!-- Generator: Adobe Illustrator 23.0.3, SVG Export Plug-In . SVG Version: 6.00 Build 0)  -->
<svg version="1.1" id="Layer_1" xmlns="http://www.w3.org/2000/svg" xmlns:xlink="http://www.w3.org/1999/xlink" x="0px" y="0px"
	 viewBox="0 0 150 150" style="enable-background:new 0 0 150 150;" xml:space="preserve">
<style type="text/css">
	.st0{clip-path:url(#SVGID_2_);fill:none;stroke:#6AAC0E;stroke-miterlimit:10;}
	.st1{clip-path:url(#SVGID_2_);fill:none;stroke:#6AAC0E;stroke-linecap:round;stroke-linejoin:round;stroke-miterlimit:10;}
</style>
<g>
	<defs>
		<rect id="SVGID_1_" width="150" height="150"/>
	</defs>
	<clipPath id="SVGID_2_">
		<use xlink:href="#SVGID_1_"  style="overflow:visible;"/>
	</clipPath>
	<circle class="st0" cx="112.61" cy="110.89" r="21.77"/>
	<path class="st1" d="M38.56,57.78c0,0-4.04-0.89-4.04,3.46c0,4.35,4.04,4.06,4.04,4.06"/>
	<path class="st1" d="M44.35,82.16c-3.3,0.3-11.28,4.23-15.01,14.26c-0.69,1.85-1.22,3.92-1.62,6.09"/>
	<path class="st1" d="M67.43,82.47c0,0,12.2,3.44,15.8,16.36c2.46,8.8,1.35,36.21,1.35,36.21"/>
	<line class="st1" x1="74.38" y1="113.24" x2="74.38" y2="136.2"/>
	<line class="st1" x1="36.54" y1="113.24" x2="36.54" y2="118.1"/>
	<path class="st1" d="M47.92,84.67c0,0,4.3,10.38,8.38,10.38c3.91,0,8.38-10.38,8.38-10.38"/>
	<path class="st1" d="M72.26,75.39c-1.93,4.78-7.03,10.64-15.62,10.64c-11.26,0-17.57-8.26-17.57-14.41V47.14
		c0-0.89,0.59-3.78,2.55-6.66c0,0,2.17,7.81,9.38,11.5c7.21,3.7,16.22,4.07,19.82,8.5c3.6,4.44-0.9,17.78,3.6,22.57
		c4.5,4.79,15.31,3.11,16.67,0.25c1.35-2.86-7.21-3.72-4.96-8.28c2.25-4.56,4.06-13.8,0.45-17.87c-3.6-4.07-6.76-5.92-7.66-10.35
		c-0.9-4.44-7.66-15.53-18.47-18.49c-10.81-2.96-27.48,8.87-27.03,22.55c-0.01,6.1-11.71,4.04-11.26,13.85
		c0.45,9.81,6.23,12.29,3.53,14.86c-2.7,2.57-9.27,2.43-9.27,4.53c0,2.1,3.94,8.83,14.75,7.58"/>
	<path class="st1" d="M80.53,92.68c0,0,9.3-3.57,10.55-9.37"/>
	<path class="st1" d="M108.32,63.46c7.45,1.6,12.88,7.3,15.71,14.13"/>
	<path class="st1" d="M80.65,50.54v-22.6c0-1.95,2.85-13.51,16.67-13.51c14.26,0,17.27,11.11,17.42,13.81c0.15,2.7,0,22.37,0,24.02
		c0,4.5-5.26,14.56-16.52,14.56c-3.77,0-6.99-0.93-9.6-2.39"/>
	<path class="st1" d="M76.69,40.71c0.9-2.63,3.96-2.41,3.96-2.41"/>
	<path class="st1" d="M80.65,46.86c0,0-0.88-0.03-1.83-0.48"/>
	<path class="st1" d="M114.8,39.34c0,0,4.04-0.89,4.04,3.46c0,4.35-4.04,4.06-4.04,4.06"/>
	<path class="st1" d="M87.75,70.48c2.34,1.63,5.59,2.95,9.97,2.95c11.3,0,14.45-8.48,14.45-8.48"/>
	<path class="st1" d="M80.65,35.15c0,0,2.4-0.6,3.45-3.15s-1.65-6.16,1.8-7.21c3.45-1.05,5.02,2.55,11.82,2.55
		c6.8,0,7.55-4.44,10.7-2.74c3.15,1.69,0,5.15,2.25,8.45c2.25,3.3,4.12,4.65,4.12,4.65"/>
	<path class="st1" d="M80.65,35.9c-1.91-0.22-3.86-0.33-5.83-0.33c-0.87,0-1.73,0.02-2.58,0.06"/>
	<path class="st1" d="M124.78,88c0-0.66,0-1.29,0-1.9c0-11.66-3.98-22.39-10.65-30.9"/>
	<path class="st1" d="M24.81,91.89c2.87,24.97,24.08,44.36,49.82,44.36c8,0,15.55-1.87,22.26-5.2"/>
	<circle class="st1" cx="117.94" cy="104.15" r="3.18"/>
	<circle class="st1" cx="104" cy="112" r="4"/>
	<circle class="st1" cx="117.94" cy="118.97" r="3.18"/>
	<line class="st1" x1="107.98" y1="113.16" x2="115.21" y2="117.37"/>
	<line class="st1" x1="115.2" y1="105.75" x2="107.98" y2="109.97"/>
</g>
</svg>
