<?xml version="1.0" encoding="utf-8"?>
<!-- Generator: Adobe Illustrator 25.2.1, SVG Export Plug-In . SVG Version: 6.00 Build 0)  -->
<svg version="1.1" id="Layer_1" xmlns="http://www.w3.org/2000/svg" xmlns:xlink="http://www.w3.org/1999/xlink" x="0px" y="0px"
	 viewBox="0 0 112 94" style="enable-background:new 0 0 112 94;" xml:space="preserve">
<style type="text/css">
	.st0{fill:url(#SVGID_1_);}
	.st1{fill:url(#SVGID_2_);}
	.st2{fill:url(#SVGID_3_);}
	.st3{fill:url(#SVGID_4_);}
	.st4{fill:url(#SVGID_5_);}
	.st5{fill:url(#SVGID_6_);}
	.st6{fill:url(#SVGID_7_);}
	.st7{fill:url(#SVGID_8_);}
	.st8{fill:url(#SVGID_9_);}
	.st9{fill:url(#SVGID_10_);}
</style>
<g>
	<g>
		<g>
			<linearGradient id="SVGID_1_" gradientUnits="userSpaceOnUse" x1="-20.0177" y1="85.907" x2="83.2363" y2="11.5314">
				<stop  offset="0" style="stop-color:#96C854"/>
				<stop  offset="0.4883" style="stop-color:#98D268"/>
				<stop  offset="1" style="stop-color:#A5F2B6"/>
			</linearGradient>
			<polygon class="st0" points="20.3,76.7 0,56.4 20.3,33.1 20.3,45.3 49,45.3 49,48.6 16.9,48.6 16.9,42.1 4.6,56.2 16.9,68.6 
				16.9,61.6 42,61.6 42,65 20.3,65 			"/>
		</g>
		<g>
			<linearGradient id="SVGID_2_" gradientUnits="userSpaceOnUse" x1="11.2188" y1="129.2719" x2="114.4728" y2="54.8964">
				<stop  offset="0" style="stop-color:#96C854"/>
				<stop  offset="0.4883" style="stop-color:#98D268"/>
				<stop  offset="1" style="stop-color:#A5F2B6"/>
			</linearGradient>
			<polygon class="st1" points="91.7,93.1 91.7,81.4 65.3,81.4 65.3,78 95,78 95,84.9 107.4,72.6 95,58.5 95,65 79.3,65 79.3,61.6 
				91.7,61.6 91.7,49.5 112,72.8 			"/>
		</g>
		<g>
			<linearGradient id="SVGID_3_" gradientUnits="userSpaceOnUse" x1="-6.7862" y1="104.276" x2="96.4679" y2="29.9005">
				<stop  offset="0" style="stop-color:#96C854"/>
				<stop  offset="0.4883" style="stop-color:#98D268"/>
				<stop  offset="1" style="stop-color:#A5F2B6"/>
			</linearGradient>
			<rect x="46.6" y="61.6" class="st2" width="7" height="3.4"/>
		</g>
		<g>
			<linearGradient id="SVGID_4_" gradientUnits="userSpaceOnUse" x1="3.417" y1="118.4408" x2="106.671" y2="44.0652">
				<stop  offset="0" style="stop-color:#96C854"/>
				<stop  offset="0.4883" style="stop-color:#98D268"/>
				<stop  offset="1" style="stop-color:#A5F2B6"/>
			</linearGradient>
			<rect x="53.7" y="78" class="st3" width="7" height="3.4"/>
		</g>
		<g>
			<linearGradient id="SVGID_5_" gradientUnits="userSpaceOnUse" x1="-0.5799" y1="112.8921" x2="102.6741" y2="38.5165">
				<stop  offset="0" style="stop-color:#96C854"/>
				<stop  offset="0.4883" style="stop-color:#98D268"/>
				<stop  offset="1" style="stop-color:#A5F2B6"/>
			</linearGradient>
			<rect x="42" y="78" class="st4" width="7" height="3.4"/>
		</g>
		<g>
			<linearGradient id="SVGID_6_" gradientUnits="userSpaceOnUse" x1="-4.5767" y1="107.3434" x2="98.6773" y2="32.9678">
				<stop  offset="0" style="stop-color:#96C854"/>
				<stop  offset="0.4883" style="stop-color:#98D268"/>
				<stop  offset="1" style="stop-color:#A5F2B6"/>
			</linearGradient>
			<rect x="30.3" y="78" class="st5" width="7" height="3.4"/>
		</g>
		<g>
			<linearGradient id="SVGID_7_" gradientUnits="userSpaceOnUse" x1="-11.8108" y1="97.3005" x2="91.4432" y2="22.9249">
				<stop  offset="0" style="stop-color:#96C854"/>
				<stop  offset="0.4883" style="stop-color:#98D268"/>
				<stop  offset="1" style="stop-color:#A5F2B6"/>
			</linearGradient>
			<path class="st6" d="M108.1,57l-3.1-1.3c2-4.6,2.9-9.5,2.9-14.6c0-20.3-16.5-36.9-36.9-36.9C52,4.3,36.2,18.7,34.5,37.8l-3.4-0.3
				C33,16.6,50.2,0.9,71.2,0.9c22.1,0,40.2,18,40.2,40.2C111.4,46.7,110.3,52,108.1,57z"/>
		</g>
		<g>
			<linearGradient id="SVGID_8_" gradientUnits="userSpaceOnUse" x1="-9.9432" y1="99.8931" x2="93.3108" y2="25.5176">
				<stop  offset="0" style="stop-color:#96C854"/>
				<stop  offset="0.4883" style="stop-color:#98D268"/>
				<stop  offset="1" style="stop-color:#A5F2B6"/>
			</linearGradient>
			<path class="st7" d="M72.4,58h-4.7c-3.5,0-6.4-2.8-6.4-6.4v-2.3h3.4v2.3c0,1.6,1.4,3,3,3h4.7c1.6,0,3-1.4,3-3V48
				c0-1.3-0.9-2.4-2.1-2.8l-7.7-2.6c-2.6-0.9-4.3-3.3-4.3-6V33c0-3.5,2.8-6.4,6.4-6.4h4.7c3.5,0,6.4,2.8,6.4,6.4v2.3h-3.4V33
				c0-1.6-1.4-3-3-3h-4.7c-1.6,0-3,1.4-3,3v3.6c0,1.3,0.9,2.4,2.1,2.8l7.7,2.6c2.6,0.9,4.3,3.3,4.3,6v3.6C78.7,55.2,75.8,58,72.4,58
				z"/>
		</g>
		<g>
			<linearGradient id="SVGID_9_" gradientUnits="userSpaceOnUse" x1="-18.2941" y1="88.2997" x2="84.9599" y2="13.9242">
				<stop  offset="0" style="stop-color:#96C854"/>
				<stop  offset="0.4883" style="stop-color:#98D268"/>
				<stop  offset="1" style="stop-color:#A5F2B6"/>
			</linearGradient>
			<rect x="68.3" y="21.2" class="st8" width="3.4" height="7"/>
		</g>
		<g>
			<linearGradient id="SVGID_10_" gradientUnits="userSpaceOnUse" x1="-1.648" y1="111.4092" x2="101.606" y2="37.0337">
				<stop  offset="0" style="stop-color:#96C854"/>
				<stop  offset="0.4883" style="stop-color:#98D268"/>
				<stop  offset="1" style="stop-color:#A5F2B6"/>
			</linearGradient>
			<rect x="68.3" y="56.3" class="st9" width="3.4" height="7"/>
		</g>
	</g>
</g>
</svg>
