<?xml version="1.0" encoding="utf-8"?>
<!-- Generator: Adobe Illustrator 25.2.1, SVG Export Plug-In . SVG Version: 6.00 Build 0)  -->
<svg version="1.1" id="Layer_1" xmlns="http://www.w3.org/2000/svg" xmlns:xlink="http://www.w3.org/1999/xlink" x="0px" y="0px"
	 viewBox="0 0 70 65" style="enable-background:new 0 0 70 65;" xml:space="preserve">
<style type="text/css">
	.st0{fill:url(#SVGID_1_);}
	.st1{fill:url(#SVGID_2_);}
	.st2{fill:url(#SVGID_3_);}
	.st3{fill:url(#SVGID_4_);}
	.st4{fill:url(#SVGID_5_);}
</style>
<g>
	<g>
		<g>
			<linearGradient id="SVGID_1_" gradientUnits="userSpaceOnUse" x1="-20.7271" y1="95.5202" x2="68.6326" y2="36.946">
				<stop  offset="0" style="stop-color:#96C854"/>
				<stop  offset="0.4883" style="stop-color:#98D268"/>
				<stop  offset="1" style="stop-color:#A5F2B6"/>
			</linearGradient>
			<path class="st0" d="M60.2,63.7c-0.7,0-1.2-0.6-1.2-1.2V33.9c0-0.1-0.1-0.2-0.2-0.2H45.3c-0.1,0-0.2,0.1-0.2,0.2v28.6
				c0,0.7-0.6,1.2-1.2,1.2c-0.7,0-1.2-0.6-1.2-1.2V33.9c0-1.5,1.2-2.7,2.7-2.7h13.5c1.5,0,2.7,1.2,2.7,2.7v28.6
				C61.5,63.2,60.9,63.7,60.2,63.7z"/>
		</g>
		<g>
			<linearGradient id="SVGID_2_" gradientUnits="userSpaceOnUse" x1="-28.1193" y1="84.2428" x2="61.2232" y2="25.6798">
				<stop  offset="0" style="stop-color:#96C854"/>
				<stop  offset="0.4883" style="stop-color:#98D268"/>
				<stop  offset="1" style="stop-color:#A5F2B6"/>
			</linearGradient>
			<path class="st1" d="M11,63.7c-0.7,0-1.2-0.6-1.2-1.2v-8.1c0-1.5,1.2-2.7,2.7-2.7h14.9c0.7,0,1.2,0.6,1.2,1.2s-0.6,1.2-1.2,1.2
				H12.5c-0.1,0-0.2,0.1-0.2,0.2v8.1C12.3,63.2,11.7,63.7,11,63.7z"/>
		</g>
		<g>
			<linearGradient id="SVGID_3_" gradientUnits="userSpaceOnUse" x1="-25.9369" y1="87.5722" x2="63.4227" y2="28.998">
				<stop  offset="0" style="stop-color:#96C854"/>
				<stop  offset="0.4883" style="stop-color:#98D268"/>
				<stop  offset="1" style="stop-color:#A5F2B6"/>
			</linearGradient>
			<path class="st2" d="M27.4,63.7c-0.7,0-1.2-0.6-1.2-1.2v-19c0-1.5,1.2-2.7,2.7-2.7h14.9c0.7,0,1.2,0.6,1.2,1.2
				c0,0.7-0.6,1.2-1.2,1.2H28.9c-0.1,0-0.2,0.1-0.2,0.2v19C28.7,63.2,28.1,63.7,27.4,63.7z"/>
		</g>
		<g>
			<linearGradient id="SVGID_4_" gradientUnits="userSpaceOnUse" x1="-19.1186" y1="97.9741" x2="70.2411" y2="39.3999">
				<stop  offset="0" style="stop-color:#96C854"/>
				<stop  offset="0.4883" style="stop-color:#98D268"/>
				<stop  offset="1" style="stop-color:#A5F2B6"/>
			</linearGradient>
			<path class="st3" d="M67.1,63.7H2.9c-0.7,0-1.2-0.6-1.2-1.2s0.6-1.2,1.2-1.2h64.2c0.7,0,1.2,0.6,1.2,1.2S67.7,63.7,67.1,63.7z"/>
		</g>
		<g>
			<linearGradient id="SVGID_5_" gradientUnits="userSpaceOnUse" x1="-38.1135" y1="68.9959" x2="51.2462" y2="10.4217">
				<stop  offset="0" style="stop-color:#96C854"/>
				<stop  offset="0.4883" style="stop-color:#98D268"/>
				<stop  offset="1" style="stop-color:#A5F2B6"/>
			</linearGradient>
			<path class="st4" d="M57.4,3.7c0.8,0,1.4,0.6,1.4,1.4v8.7c0,0.9-0.7,1.4-1.4,1.4c-0.4,0-0.7-0.1-1-0.4L56,14.4
				c-0.3-0.3-0.7-0.5-1.2-0.5c-0.4,0-0.9,0.2-1.2,0.5L35.3,32.7c-0.3,0.3-0.6,0.4-1,0.4s-0.7-0.1-1-0.4l-6.2-6.2
				c-0.3-0.3-0.6-0.4-1-0.4s-0.7,0.1-1,0.4L12,39.5c-0.3,0.3-0.6,0.4-1,0.4s-0.7-0.1-1-0.4l-3.4-3.4C6,35.5,6,34.6,6.6,34l18.5-18.5
				c0.3-0.3,0.6-0.4,1-0.4s0.7,0.1,1,0.4l6.2,6.2c0.3,0.3,0.6,0.4,1,0.4s0.7-0.1,1-0.4L48.1,9c0.7-0.7,0.7-1.7,0-2.4l-0.4-0.4
				c-0.9-0.9-0.2-2.5,1-2.5L57.4,3.7 M57.4,1.3h-8.7c-1.6,0-3,0.9-3.6,2.4c-0.6,1.4-0.3,3,0.7,4.2L34.3,19.4L28.9,14
				c-0.7-0.7-1.7-1.1-2.7-1.1c-1.1,0-2.1,0.4-2.7,1.1L4.9,32.4c-1.5,1.5-1.5,4,0,5.5l3.4,3.4C9,42.1,10,42.4,11,42.4
				c1.1,0,2.1-0.4,2.7-1.1L26,29.1l5.4,5.4c0.7,0.7,1.7,1.1,2.7,1.1c1.1,0,2.1-0.4,2.7-1.1l17.7-17.7c0.7,0.7,1.7,1.1,2.6,1.1
				c2.2,0,3.9-1.7,3.9-3.9V5.2C61.3,3,59.6,1.3,57.4,1.3L57.4,1.3z"/>
		</g>
	</g>
</g>
</svg>
