<svg version="1.1" id="Layer_1" xmlns="http://www.w3.org/2000/svg" x="0" y="0" viewBox="0 0 96.5 47.4" xml:space="preserve"><style>.st0{fill:#fff}</style><path class="st0" d="M76.2 21.2c.2-.1.4-.4.5-.6 0-.3 0-.6-.2-.8l-6.9-6.9 6.4-1.4c.4-.1.6-.4.7-.8 0-.4-.2-.7-.5-.9L56.4.4c-.2-.1-.4-.1-.6-.1L48.6 2h-.1L41.6.7c-.2 0-.4 0-.5.1l-19.3 9.4c-.3.2-.5.5-.5.9.1.4.3.7.7.7l5.3 1-7 7.1c-.2.2-.3.5-.2.8 0 .3.2.5.5.6l7.6 3.9v9.7c0 .3.2.6.4.8L48 46.9c.1.1.3.1.4.1.2 0 .3 0 .4-.1l19.5-11.3c.3-.2.4-.4.4-.8V25l7.5-3.8zm-46.4 4.9l10.1 5.2c.1.1.3.1.4.1.2 0 .5-.1.6-.3l6.6-6.7v20.1L29.8 34.3v-8.2zM66 12.3l-17.1 8.8-.3.2-17.4-9.1 17.2-8.3 16.2 7.7 1.4.7zm1.7 1.1l6.7 6.7-17.7 9.2-6.7-6.7 17.7-9.2zM65.2 10L51.1 3.2l4.8-1.1L73 10.3l-5 1.1-2.8-1.4zm-36.3 1.3l-4-.7 16.7-8.1 4 .7-16.7 8.1zM47 22.5l-6.9 6.9-17.7-9.2 6.9-7L47 22.5zm2.3 1.9l6.5 6.6c.2.2.4.3.6.3.1 0 .3 0 .4-.1L67 25.9v8.5L49.3 44.6V24.4z"/><path class="st0" d="M96 7.3L81.2.1c-.2-.1-.5-.1-.8 0l-8.7 4.2c-.4.2-.6.7-.4 1.2.1.2.3.4.5.4.2.1.5.1.7 0l8.3-4 12.9 6.2-12.8 6.6-3.9-2c-.4-.2-1-.1-1.2.4-.2.4-.1 1 .4 1.2l3.7 1.9v16.1l-7.6-4.5c-.4-.2-1-.1-1.2.3-.2.4-.1 1 .3 1.2l9 5.3c.1.1.3.1.4.1.2 0 .3 0 .4-.1L96.1 26c.3-.2.4-.4.4-.8V8.1c0-.3-.2-.6-.5-.8zm-14.3 9l13.1-6.8v15.2l-13.1 7.6v-16zM24.9 27.7c-.2-.1-.5 0-.7.1l-7.6 4.5V16.2l3.7-1.9c.4-.2.6-.8.4-1.2-.2-.4-.8-.6-1.2-.4l-3.9 2L2.8 8.1l12.9-6.2 8.3 4c.2.1.4.1.7 0 .2-.1.4-.2.5-.4.2-.4 0-1-.4-1.2L16.1.1c-.2-.1-.5-.1-.8 0L.5 7.3c-.3.2-.5.5-.5.8v17.1c0 .3.2.6.4.8l14.8 8.6c.1.1.3.1.4.1.2 0 .3 0 .4-.1l9-5.3c.4-.2.6-.8.3-1.2 0-.2-.2-.3-.4-.4zM1.8 9.5l13.1 6.8v16L1.8 24.7V9.5z"/></svg>