<svg version="1.1" id="Layer_1" xmlns="http://www.w3.org/2000/svg" x="0" y="0" viewBox="0 0 78 62" xml:space="preserve"><style>.st0{fill:#fff}</style><path class="st0" d="M28 49.4c-11.6 0-21.1-9.5-21.1-21.1S16.3 7.2 28 7.2s21 9.5 21 21.1c0 1.5-.2 3.1-.5 4.6-.1.6-.7 1-1.4.9-.6-.1-1-.7-.9-1.4.3-1.3.4-2.7.4-4.1 0-10.4-8.4-18.8-18.8-18.8S9.1 17.9 9.1 28.3 17.6 47.1 28 47.1c5 0 9.8-2 13.3-5.5.4-.4 1.2-.4 1.6 0 .4.4.4 1.2 0 1.6-4 4-9.3 6.2-14.9 6.2z"/><path class="st0" d="M28 54.6c-14.5 0-26.3-11.8-26.3-26.3C1.6 13.8 13.4 2 28 2c13.2 0 24.5 9.9 26.1 23 .1.6-.4 1.2-1 1.3-.6.1-1.2-.4-1.3-1-1.5-12-11.8-21-23.9-21-13.3 0-24 10.8-24 24s10.8 24 24 24c6.2 0 12.1-2.4 16.6-6.7.5-.4 1.2-.4 1.6 0 .4.5.4 1.2 0 1.6-4.9 4.8-11.3 7.4-18.1 7.4z"/><path class="st0" d="M30.6 29.4h-7.8c-.6 0-1.1-.5-1.1-1.1V17.2c0-.6.5-1.1 1.1-1.1h7.8c3.7 0 6.7 3 6.7 6.7s-3 6.6-6.7 6.6zm-6.7-2.2h6.7c2.4 0 4.4-2 4.4-4.4 0-2.4-2-4.4-4.4-4.4h-6.7v8.8z"/><path class="st0" d="M30.6 40.6h-7.8c-.6 0-1.1-.5-1.1-1.1V28.3c0-.6.5-1.1 1.1-1.1h7.8a6.7 6.7 0 010 13.4zm-6.7-2.3h6.7c2.4 0 4.4-2 4.4-4.4 0-2.4-2-4.4-4.4-4.4h-6.7v8.8zM23.8 18.3h-4c-.6 0-1.1-.5-1.1-1.1 0-.6.5-1.1 1.1-1.1h4c.6 0 1.1.5 1.1 1.1 0 .6-.5 1.1-1.1 1.1z"/><path class="st0" d="M23.8 40.6h-4c-.6 0-1.1-.5-1.1-1.1s.5-1.1 1.1-1.1h4c.6 0 1.1.5 1.1 1.1s-.5 1.1-1.1 1.1zM24.8 18.3c-.6 0-1.1-.5-1.1-1.1v-3c0-.6.5-1.1 1.1-1.1.6 0 1.1.5 1.1 1.1v3c0 .6-.5 1.1-1.1 1.1zM30.1 18.3c-.6 0-1.1-.5-1.1-1.1v-3c0-.6.5-1.1 1.1-1.1.6 0 1.1.5 1.1 1.1v3c0 .6-.5 1.1-1.1 1.1z"/><path class="st0" d="M24.8 43.6c-.6 0-1.1-.5-1.1-1.1v-3c0-.6.5-1.1 1.1-1.1.6 0 1.1.5 1.1 1.1v3c0 .6-.5 1.1-1.1 1.1zM30.1 43.6c-.6 0-1.1-.5-1.1-1.1v-3c0-.6.5-1.1 1.1-1.1.6 0 1.1.5 1.1 1.1v3c0 .6-.5 1.1-1.1 1.1z"/><g><path class="st0" d="M59.7 45.7c-.2 0-.3 0-.5-.1l-15.6-7.1c-.3-.1-.5-.4-.6-.7-.1-.3 0-.7.2-1l15.6-21.4c.4-.6 1.4-.6 1.8 0l15.6 21.4c.2.3.3.6.2 1-.1.3-.3.6-.6.7l-15.6 7.1c-.2.1-.4.1-.5.1zM45.8 37l13.8 6.3L73.5 37 59.7 17.9 45.8 37z"/><path class="st0" d="M59.7 57.9c-.6 0-1.1-.5-1.1-1.1V16c0-.6.5-1.1 1.1-1.1.6 0 1.1.5 1.1 1.1v40.8c0 .6-.5 1.1-1.1 1.1z"/><g><path class="st0" d="M59.7 60c-.4 0-.7-.2-.9-.5L43.2 38.1c-.4-.5-.3-1.2.3-1.6.5-.4 1.2-.3 1.6.3L59.7 57l14.6-20.2c.4-.5 1.1-.6 1.6-.3.5.4.6 1.1.3 1.6L60.6 59.5c-.2.3-.6.5-.9.5z"/></g></g></svg>