<svg version="1.1" id="Layer_1" xmlns="http://www.w3.org/2000/svg" x="0" y="0" viewBox="0 0 85 65" xml:space="preserve"><style>.st0{fill:#fff}</style><path class="st0" d="M43.3 63.4c-7.3 0-14.7-2-14.7-5.8 0-.7.5-1.2 1.2-1.2s1.2.5 1.2 1.2c0 1.2 4.3 3.4 12.3 3.4s12.3-2.3 12.3-3.4c0-.7.5-1.2 1.2-1.2s1.2.5 1.2 1.2c0 3.8-7.4 5.8-14.7 5.8z"/><path class="st0" d="M43.3 57.7c-7.3 0-14.7-2-14.7-5.8 0-.7.5-1.2 1.2-1.2s1.2.5 1.2 1.2c0 1.2 4.3 3.4 12.3 3.4s12.3-2.3 12.3-3.4c0-.7.5-1.2 1.2-1.2s1.2.5 1.2 1.2c0 3.8-7.4 5.8-14.7 5.8z"/><path class="st0" d="M43.3 63.5c-7.3 0-14.7-2-14.7-5.8v-5.8c0-.7.5-1.2 1.2-1.2s1.2.5 1.2 1.2v5.8c0 1.2 4.3 3.4 12.3 3.4s12.3-2.3 12.3-3.4v-5.8c0-.7.5-1.2 1.2-1.2s1.2.5 1.2 1.2v5.8c0 3.8-7.4 5.8-14.7 5.8z"/><path class="st0" d="M43.3 52c-7.3 0-14.7-2-14.7-5.8 0-.7.5-1.2 1.2-1.2s1.2.5 1.2 1.2c0 1.2 4.3 3.4 12.3 3.4s12.3-2.3 12.3-3.4c0-.7.5-1.2 1.2-1.2s1.2.5 1.2 1.2C58 50 50.6 52 43.3 52z"/><path class="st0" d="M43.3 57.8c-7.3 0-14.7-2-14.7-5.8v-5.8c0-.7.5-1.2 1.2-1.2s1.2.5 1.2 1.2V52c0 1.2 4.3 3.4 12.3 3.4s12.3-2.3 12.3-3.4v-5.8c0-.7.5-1.2 1.2-1.2s1.2.5 1.2 1.2V52c0 3.8-7.4 5.8-14.7 5.8z"/><g><path class="st0" d="M43.3 46.4c-7.3 0-14.7-2-14.7-5.8s7.4-5.8 14.7-5.8 14.7 2 14.7 5.8-7.4 5.8-14.7 5.8zm0-9.2c-8 0-12.3 2.3-12.3 3.4S35.4 44 43.3 44c8 0 12.3-2.3 12.3-3.4s-4.3-3.4-12.3-3.4z"/><path class="st0" d="M43.3 52.2c-7.3 0-14.7-2-14.7-5.8v-5.8c0-.7.5-1.2 1.2-1.2s1.2.5 1.2 1.2v5.8c0 1.2 4.3 3.4 12.3 3.4s12.3-2.3 12.3-3.4v-5.8c0-.7.5-1.2 1.2-1.2s1.2.5 1.2 1.2v5.8c0 3.8-7.4 5.8-14.7 5.8z"/></g><g><path class="st0" d="M16.4 63.4c-7.3 0-14.7-2-14.7-5.8 0-.7.5-1.2 1.2-1.2s1.2.5 1.2 1.2c0 1.2 4.3 3.4 12.3 3.4s12.3-2.3 12.3-3.4c0-.7.5-1.2 1.2-1.2s1.2.5 1.2 1.2c-.1 3.8-7.4 5.8-14.7 5.8z"/><path class="st0" d="M16.4 57.8c-7.3 0-14.7-2-14.7-5.8s7.4-5.8 14.7-5.8S31 48.2 31 52s-7.3 5.8-14.6 5.8zm0-9.2c-8 0-12.3 2.3-12.3 3.4 0 1.2 4.3 3.4 12.3 3.4s12.3-2.3 12.3-3.4c0-1.2-4.4-3.4-12.3-3.4z"/><path class="st0" d="M16.4 63.6c-7.3 0-14.7-2-14.7-5.8V52c0-.7.5-1.2 1.2-1.2s1.2.5 1.2 1.2v5.8c0 1.2 4.3 3.4 12.3 3.4s12.3-2.3 12.3-3.4V52c0-.7.5-1.2 1.2-1.2s1.2.5 1.2 1.2v5.8c-.1 3.8-7.4 5.8-14.7 5.8z"/></g><g><path class="st0" d="M69.7 57.5s-.1 0 0 0C63 57.5 56 55.3 56 51.4c0-.7.5-1.2 1.2-1.2s1.2.5 1.2 1.2c0 1.5 4.4 3.7 11.3 3.7h.1c5.5 0 9.3-1.4 10.7-2.7.3-.3.5-.6.5-.9 0-.7.5-1.2 1.2-1.2s1.2.5 1.2 1.2c0 .6-.2 1.6-1.2 2.6-2.2 2.1-7.1 3.4-12.5 3.4z"/><path class="st0" d="M69.7 63.6s-.1 0 0 0c-6.9 0-13.7-2.1-13.7-6.1v-6.1c0-.7.5-1.2 1.2-1.2s1.2.5 1.2 1.2v6.1c0 1.5 4.4 3.7 11.3 3.7 3.2 0 6.2-.5 8.4-1.3 1.8-.7 2.9-1.6 2.9-2.3v-6.1c0-.7.5-1.2 1.2-1.2s1.2.5 1.2 1.2v6.1c0 1.8-1.6 3.4-4.4 4.5-2.6.9-5.9 1.5-9.3 1.5z"/><path class="st0" d="M69.7 51.6C63 51.5 56 49.4 56 45.5c0-.7.5-1.2 1.2-1.2s1.2.5 1.2 1.2c0 1.5 4.4 3.7 11.3 3.7 3.1 0 6.2-.5 8.4-1.3 1.8-.7 2.9-1.6 2.9-2.3 0-.7.5-1.2 1.2-1.2s1.2.5 1.2 1.2c0 1.8-1.6 3.4-4.4 4.5-2.6.9-5.8 1.5-9.3 1.5z"/><path class="st0" d="M69.7 57.6s-.1 0 0 0c-6.7 0-13.7-2.1-13.7-6v-6.1c0-.7.5-1.2 1.2-1.2s1.2.5 1.2 1.2v6.1c0 1.5 4.4 3.7 11.3 3.7 5.5 0 9.4-1.4 10.8-2.7.3-.3.5-.6.5-.9v-6.1c0-.7.5-1.2 1.2-1.2s1.2.5 1.2 1.2v6.1c0 .6-.2 1.6-1.2 2.6-2.2 2-7.1 3.3-12.5 3.3z"/><g><path class="st0" d="M69.7 45.6C63 45.6 56 43.5 56 39.5c0-.7.5-1.2 1.2-1.2s1.2.5 1.2 1.2c0 1.5 4.4 3.7 11.3 3.7h.1c5.5 0 9.3-1.4 10.7-2.7.3-.3.5-.6.5-.9 0-.7.5-1.2 1.2-1.2s1.2.5 1.2 1.2c0 .6-.2 1.6-1.2 2.6-2.2 2.1-7 3.4-12.5 3.4z"/><path class="st0" d="M69.7 51.7c-6.9 0-13.7-2.1-13.7-6.1v-6.1c0-.7.5-1.2 1.2-1.2s1.2.5 1.2 1.2v6.1c0 1.5 4.4 3.7 11.3 3.7 3.1 0 6.2-.5 8.4-1.3 1.8-.7 2.9-1.6 2.9-2.3v-6.1c0-.7.5-1.2 1.2-1.2s1.2.5 1.2 1.2v6.1c0 1.8-1.6 3.4-4.4 4.5-2.6 1-5.8 1.5-9.3 1.5z"/></g><g><path class="st0" d="M69.7 39.6C63 39.6 56 37.5 56 33.5c0-.7.5-1.2 1.2-1.2s1.2.5 1.2 1.2c0 1.5 4.4 3.7 11.3 3.7h.1c5.5 0 9.3-1.4 10.7-2.7.3-.3.5-.6.5-.9 0-.7.5-1.2 1.2-1.2s1.2.5 1.2 1.2c0 .6-.2 1.6-1.2 2.6-2.2 2.1-7 3.4-12.5 3.4z"/><path class="st0" d="M69.7 45.7c-6.9 0-13.7-2.1-13.7-6.1v-6.1c0-.7.5-1.2 1.2-1.2s1.2.5 1.2 1.2v6.1c0 1.5 4.4 3.7 11.3 3.7 3.2 0 6.2-.5 8.4-1.3 1.8-.7 2.9-1.6 2.9-2.3v-6.1c0-.7.5-1.2 1.2-1.2s1.2.5 1.2 1.2v6.1c0 1.8-1.6 3.4-4.4 4.5-2.6 1-5.8 1.5-9.3 1.5z"/><g><path class="st0" d="M69.8 33.7c-.1 0-.1 0 0 0-6.9 0-13.7-2.1-13.7-6.1 0-.6.2-1.6 1.2-2.6 2.1-2.1 7-3.4 12.4-3.4 6.6 0 13.6 2.2 13.6 6.1 0 .6-.2 1.6-1.2 2.6-2.1 2.1-6.9 3.4-12.3 3.4zm-.2-9.7c-5.5 0-9.4 1.4-10.7 2.7-.3.3-.5.6-.5.9 0 1.5 4.4 3.7 11.3 3.7 5.5 0 9.4-1.4 10.8-2.7.3-.3.5-.6.5-.9-.1-1.5-4.5-3.7-11.4-3.7zm-12.4 3.6z"/><path class="st0" d="M69.7 39.8C63 39.8 56 37.6 56 33.7v-6.1c0-.7.5-1.2 1.2-1.2s1.2.5 1.2 1.2v6.1c0 1.5 4.4 3.7 11.3 3.7 3.2 0 6.2-.5 8.4-1.3 1.8-.7 2.9-1.6 2.9-2.3v-6.1c0-.7.5-1.2 1.2-1.2s1.2.5 1.2 1.2v6.1c0 1.8-1.6 3.4-4.4 4.5-2.6.9-5.8 1.5-9.3 1.5z"/></g></g></g><path class="st0" d="M17.7 39.3h-.1l-6.2-.6c-.7-.1-1.1-.6-1.1-1.3.1-.7.6-1.1 1.3-1.1l5.6.5 10.6-12c.2-.3.5-.4.9-.4l15.5.4 13.2-13.4c.1-.1.3-.2.5-.3l19-6.4c.6-.2 1.3.1 1.5.7.2.6-.1 1.3-.7 1.5L59 13.2 45.6 26.8c-.2.2-.5.4-.9.4l-15.4-.4-10.7 12.1c-.3.3-.6.4-.9.4z"/><path class="st0" d="M75.2 11.8c-.2 0-.4 0-.5-.1-.6-.3-.8-1-.5-1.6l2.2-4.2L72 3.7c-.6-.3-.8-1-.5-1.6s1-.8 1.6-.5l5.3 2.7c.6.3.8 1 .5 1.6l-2.7 5.3c-.2.4-.6.6-1 .6z"/></svg>