<svg version="1.1" id="Layer_1" xmlns="http://www.w3.org/2000/svg" x="0" y="0" viewBox="0 0 99 66" xml:space="preserve"><style>.st0{fill:#fff}</style><path class="st0" d="M42.7 28.9c.5 0 .9-.4.9-.9s-.4-.9-.9-.9h-5.6c-.5 0-.9.4-.9.9v10.2c0 .4.3.8.9.9h5.6c.5 0 .9-.4.9-.9s-.4-.9-.9-.9H38V34h4.1c.5 0 .9-.4.9-.9s-.4-.9-.9-.9H38v-3.4h4.7zM52.9 27.2h-7.4c-.5 0-.9.4-.9.9s.4.9.9.9h2.8v9.3c0 .5.4.9.9.9s.9-.4.9-.9V29h2.8c.5 0 .9-.4.9-.9s-.4-.9-.9-.9zM62.2 28.9c.5 0 .9-.4.9-.9s-.4-.9-.9-.9h-5.7c-.5 0-.8.4-.8.9v10.2c0 .5.4.9.9.9s.9-.4.9-.9V34h4.1c.5 0 .9-.4.9-.9s-.4-.9-.9-.9h-4.1v-3.4h4.7zM7.6 39.9c-3.6 0-6.5-2.9-6.5-6.5s2.9-6.5 6.5-6.5 6.5 2.9 6.5 6.5c.1 3.6-2.9 6.5-6.5 6.5zm0-10.4c-2.2 0-3.9 1.8-3.9 3.9s1.8 3.9 3.9 3.9 3.9-1.8 3.9-3.9-1.7-3.9-3.9-3.9z"/><path class="st0" d="M32.5 34.7H12.9c-.7 0-1.3-.6-1.3-1.3 0-.7.6-1.3 1.3-1.3h19.6c.7 0 1.3.6 1.3 1.3 0 .7-.6 1.3-1.3 1.3zM14.2 21.6c-3.6 0-6.5-2.9-6.5-6.5s2.9-6.5 6.5-6.5 6.5 2.9 6.5 6.5-2.9 6.5-6.5 6.5zm0-10.4c-2.2 0-3.9 1.8-3.9 3.9S12 19 14.2 19s3.9-1.8 3.9-3.9-1.8-3.9-3.9-3.9z"/><path class="st0" d="M29.9 29.5h-6.5c-.4 0-.8-.2-1.1-.5l-6.2-8.6c-.4-.6-.3-1.4.3-1.8.6-.4 1.4-.3 1.8.3l5.8 8h5.9c.7 0 1.3.6 1.3 1.3 0 .7-.6 1.3-1.3 1.3zM14.2 58.2c-3.6 0-6.5-2.9-6.5-6.5s2.9-6.5 6.5-6.5 6.5 2.9 6.5 6.5-2.9 6.5-6.5 6.5zm0-10.4c-2.2 0-3.9 1.8-3.9 3.9 0 2.2 1.8 3.9 3.9 3.9s3.9-1.8 3.9-3.9c0-2.2-1.8-3.9-3.9-3.9z"/><path class="st0" d="M17.3 48.4c-.3 0-.5-.1-.8-.2-.6-.4-.7-1.2-.3-1.8l6-8.5c.2-.3.6-.6 1.1-.6h6.5c.7 0 1.3.6 1.3 1.3 0 .7-.6 1.3-1.3 1.3H24l-5.6 8c-.3.3-.7.5-1.1.5z"/><g><path class="st0" d="M91.4 39.9c-3.6 0-6.5-2.9-6.5-6.5s2.9-6.5 6.5-6.5 6.5 2.9 6.5 6.5-2.9 6.5-6.5 6.5zm0-10.4c-2.2 0-3.9 1.8-3.9 3.9s1.8 3.9 3.9 3.9c2.2 0 3.9-1.8 3.9-3.9s-1.8-3.9-3.9-3.9z"/><path class="st0" d="M86.1 34.7H66.5c-.7 0-1.3-.6-1.3-1.3 0-.7.6-1.3 1.3-1.3h19.7c.7 0 1.3.6 1.3 1.3-.1.7-.6 1.3-1.4 1.3zM84.8 21.6c-3.6 0-6.5-2.9-6.5-6.5s2.9-6.5 6.5-6.5 6.5 2.9 6.5 6.5c.1 3.6-2.9 6.5-6.5 6.5zm0-10.4c-2.2 0-3.9 1.8-3.9 3.9s1.8 3.9 3.9 3.9 3.9-1.8 3.9-3.9-1.7-3.9-3.9-3.9z"/><path class="st0" d="M75.7 29.5h-6.5c-.7 0-1.3-.6-1.3-1.3 0-.7.6-1.3 1.3-1.3H75l5.8-8c.4-.6 1.2-.7 1.8-.3.6.4.7 1.2.3 1.8L76.7 29c-.2.3-.6.5-1 .5zM84.8 58.2c-3.6 0-6.5-2.9-6.5-6.5s2.9-6.5 6.5-6.5 6.5 2.9 6.5 6.5c.1 3.6-2.9 6.5-6.5 6.5zm0-10.4c-2.2 0-3.9 1.8-3.9 3.9 0 2.2 1.8 3.9 3.9 3.9s3.9-1.8 3.9-3.9c.1-2.2-1.7-3.9-3.9-3.9z"/><path class="st0" d="M81.7 48.4c-.4 0-.8-.2-1.1-.6l-5.6-8h-5.9c-.7 0-1.3-.6-1.3-1.3 0-.7.6-1.3 1.3-1.3h6.5c.4 0 .8.2 1.1.6l6 8.5c.4.6.3 1.4-.3 1.8-.2.3-.4.3-.7.3z"/></g><g><path class="st0" d="M69.5 20.3c-.2 0-.4-.1-.7-.2L49.5 8.9 30.1 20.1c-.6.4-1.4.1-1.8-.5-.4-.6-.1-1.4.5-1.8l20.7-12 20.7 12c.6.4.8 1.2.5 1.8-.3.4-.7.7-1.2.7z"/><path class="st0" d="M49.5 8.7c-.7 0-1.3-.6-1.3-1.3V2.1c0-.7.6-1.3 1.3-1.3.7 0 1.3.6 1.3 1.3v5.3c0 .7-.6 1.3-1.3 1.3z"/></g><g><path class="st0" d="M49.5 60.4l-20.7-12c-.6-.4-.8-1.2-.5-1.8.4-.6 1.2-.8 1.8-.5l19.4 11.2 19.4-11.2c.6-.4 1.4-.1 1.8.5.4.6.1 1.4-.5 1.8l-20.7 12z"/><path class="st0" d="M49.5 65.3c-.7 0-1.3-.6-1.3-1.3v-5.3c0-.7.6-1.3 1.3-1.3.7 0 1.3.6 1.3 1.3V64c0 .7-.6 1.3-1.3 1.3z"/></g></svg>