<svg version="1.1" id="Layer_1" xmlns="http://www.w3.org/2000/svg" x="0" y="0" viewBox="0 0 75 69" xml:space="preserve"><style>.st0{fill:#fff}</style><path class="st0" d="M69 51H5c-1.8 0-3.2-1.4-3.2-3.2V5.1c0-1.8 1.4-3.2 3.2-3.2h64c1.8 0 3.2 1.4 3.2 3.2v42.7c0 1.8-1.4 3.2-3.2 3.2zM5 4.1c-.6 0-1.1.5-1.1 1.1v42.7c0 .6.5 1.1 1.1 1.1h64c.6 0 1.1-.5 1.1-1.1V5.1c0-.6-.5-1.1-1.1-1.1H5zM47.7 67.1H26.3c-.6 0-1.1-.5-1.1-1.1s.5-1.1 1.1-1.1h21.3c.6 0 1.1.5 1.1 1.1s-.4 1.1-1 1.1z"/><path class="st0" d="M28.9 67l-.8-2c.2-.1 4.7-2.2 4.7-10.8h2.1c0 10.2-5.8 12.7-6 12.8zM45.1 67c-.2-.1-6-2.6-6-12.7h2.1c0 8.6 4.5 10.7 4.7 10.8l-.8 1.9zM12.1 27.1c-.3 0-.5-.1-.7-.3l-.1-.1c-2-1.9-3.1-4.5-3.1-7.3 0-5.6 4.6-10.2 10.2-10.2.6 0 1.1.5 1.1 1.1v9.5c0 .3-.1.6-.3.8l-6.3 6.3c-.2.1-.5.2-.8.2zm5.3-15.8c-4 .5-7.1 3.9-7.1 8 0 1.9.6 3.7 1.8 5.1l5.2-5.2v-7.9z"/><path class="st0" d="M18.5 29.7c-1.2 0-2.3-.2-3.5-.6-.6-.2-.8-.8-.6-1.4.2-.6.8-.8 1.4-.6.9.3 1.8.5 2.7.5 4.5 0 8.2-3.7 8.2-8.2 0-3.2-1.9-6.1-4.7-7.4-.5-.2-.8-.9-.5-1.4.2-.5.9-.8 1.4-.5 3.6 1.7 5.9 5.3 5.9 9.3 0 5.7-4.7 10.3-10.3 10.3zM27.4 38.2H10.3c-.6 0-1.1-.5-1.1-1.1s.5-1.1 1.1-1.1h17.1c.6 0 1.1.5 1.1 1.1s-.5 1.1-1.1 1.1zM27.4 44.6H10.3c-.6 0-1.1-.5-1.1-1.1s.5-1.1 1.1-1.1h17.1c.6 0 1.1.5 1.1 1.1s-.5 1.1-1.1 1.1zM48.5 27s-.1 0 0 0c-.4 0-.7-.2-.9-.4l-3.4-4.5-3.3 3.2c-.2.2-.5.3-.8.3-.3 0-.6-.1-.7-.3l-2.8-2.9-1 1c-.4.4-1.1.4-1.5-.1-.4-.4-.4-1.1.1-1.5L36 20c.4-.4 1.1-.4 1.5 0l2.8 2.9 3.4-3.3c.2-.2.5-.3.8-.3.3 0 .6.2.8.4l3.3 4.5 7.3-8.1c.2-.2.5-.4.8-.4.3 0 .6.1.8.4l1.2 1.3 5.5-6.3c.4-.4 1.1-.5 1.5-.1.4.4.5 1.1.1 1.5l-6.3 7.2c-.2.2-.5.4-.8.4-.3 0-.6-.1-.8-.4l-1.2-1.4-7.4 8.2c-.2.4-.5.5-.8.5z"/><path class="st0" d="M65.3 15.9c-.6 0-1.1-.5-1.1-1.1v-2.2H62c-.6 0-1.1-.5-1.1-1.1s.5-1.1 1.1-1.1h3.3c.6 0 1.1.5 1.1 1.1v3.3c-.1.6-.5 1.1-1.1 1.1zM42.3 44.6h-6.4c-.6 0-1.1-.5-1.1-1.1V32.9c0-.6.5-1.1 1.1-1.1h6.4c.6 0 1.1.5 1.1 1.1v10.7c0 .6-.5 1-1.1 1zM37 42.5h4.3V34H37v8.5zM54.1 44.6h-6.4c-.6 0-1.1-.5-1.1-1.1v-5.3c0-.6.5-1.1 1.1-1.1h6.4c.6 0 1.1.5 1.1 1.1v5.3c-.1.7-.5 1.1-1.1 1.1zm-5.4-2.1H53v-3.2h-4.3v3.2zM65.8 44.6h-6.4c-.6 0-1.1-.5-1.1-1.1V24.4c0-.6.5-1.1 1.1-1.1h6.4c.6 0 1.1.5 1.1 1.1v19.2c0 .6-.5 1-1.1 1zm-5.3-2.1h4.3V25.4h-4.3v17.1z"/></svg>