<svg version="1.1" id="Layer_1" xmlns="http://www.w3.org/2000/svg" x="0" y="0" viewBox="0 0 79 61" xml:space="preserve"><style>.st0{fill:#fff}</style><path class="st0" d="M1.3 37.8c-.3 0-.7-.1-.9-.4-.5-.5-.4-1.3.1-1.8l12.2-11.2c.5-.5 1.3-.4 1.8.1s.4 1.3-.1 1.8L2.1 37.5c-.2.2-.5.3-.8.3zM29.5 30.9c-.2 0-.4 0-.6-.2l-9.3-5c-.6-.3-.9-1.1-.5-1.7.3-.6 1.1-.9 1.7-.5l9.3 5c.6.3.9 1.1.5 1.7-.2.4-.7.7-1.1.7zM35.5 30.1c-.3 0-.6-.1-.9-.3-.5-.5-.5-1.3-.1-1.8l11.1-12c.5-.5 1.3-.5 1.8-.1.5.5.5 1.3.1 1.8l-11.1 12c-.2.2-.5.4-.9.4zM61.4 24.2c-.3 0-.5-.1-.7-.2l-8.8-6.4c-.6-.4-.7-1.2-.3-1.8.4-.6 1.2-.7 1.8-.3l8.8 6.4c.6.4.7 1.2.3 1.8-.3.3-.7.5-1.1.5zM67.6 23.9c-.3 0-.7-.1-.9-.4-.5-.5-.5-1.3 0-1.8l10-10c.5-.5 1.3-.5 1.8 0s.5 1.3 0 1.8l-10 10c-.3.3-.6.4-.9.4z"/><path class="st0" d="M49.6 19.1c-2.8 0-5.1-2.3-5.1-5.1s2.3-5.1 5.1-5.1 5.1 2.3 5.1 5.1c-.1 2.8-2.3 5.1-5.1 5.1zm0-7.7c-1.4 0-2.5 1.1-2.5 2.5s1.1 2.5 2.5 2.5 2.5-1.1 2.5-2.5c0-1.3-1.1-2.5-2.5-2.5zM64.8 30.5c-2.8 0-5.1-2.3-5.1-5.1s2.3-5.1 5.1-5.1 5.1 2.3 5.1 5.1-2.3 5.1-5.1 5.1zm0-7.6c-1.4 0-2.5 1.1-2.5 2.5s1.1 2.5 2.5 2.5 2.5-1.1 2.5-2.5c.1-1.4-1.1-2.5-2.5-2.5zM33 36.9c-2.8 0-5.1-2.3-5.1-5.1s2.3-5.1 5.1-5.1 5.1 2.3 5.1 5.1-2.3 5.1-5.1 5.1zm0-7.7c-1.4 0-2.5 1.1-2.5 2.5s1.1 2.5 2.5 2.5 2.5-1.1 2.5-2.5c.1-1.3-1.1-2.5-2.5-2.5zM16.5 28c-2.8 0-5.1-2.3-5.1-5.1s2.3-5.1 5.1-5.1 5.1 2.3 5.1 5.1-2.3 5.1-5.1 5.1zm0-7.7c-1.4 0-2.5 1.1-2.5 2.5s1.1 2.5 2.5 2.5 2.5-1.1 2.5-2.5c.1-1.3-1.1-2.5-2.5-2.5zM77.5 20.3c-.7 0-1.3-.6-1.3-1.3v-5h-5.1c-.7 0-1.3-.6-1.3-1.3 0-.7.6-1.3 1.3-1.3h6.4c.7 0 1.3.6 1.3 1.3v6.4c0 .7-.6 1.2-1.3 1.2zM16.5 61c-.7 0-1.3-.6-1.3-1.3v-28c0-.7.6-1.3 1.3-1.3.7 0 1.3.6 1.3 1.3v28c0 .7-.6 1.3-1.3 1.3zM33 61c-.7 0-1.3-.6-1.3-1.3V40.6c0-.7.6-1.3 1.3-1.3.7 0 1.3.6 1.3 1.3v19.1c0 .7-.6 1.3-1.3 1.3zM49.6 61c-.7 0-1.3-.6-1.3-1.3V22.8c0-.7.6-1.3 1.3-1.3.7 0 1.3.6 1.3 1.3v36.9c-.1.7-.6 1.3-1.3 1.3zM64.8 61c-.7 0-1.3-.6-1.3-1.3V34.3c0-.7.6-1.3 1.3-1.3.7 0 1.3.6 1.3 1.3v25.4c0 .7-.6 1.3-1.3 1.3z"/><path class="st0" d="M77.5 61H0V1.3C0 .6.6 0 1.3 0 2 0 2.5.6 2.5 1.3v57.2h75c.7 0 1.3.6 1.3 1.3 0 .6-.6 1.2-1.3 1.2z"/></svg>